<svg width="239" height="80" viewBox="0 0 239 80" fill="none" xmlns="http://www.w3.org/2000/svg">
<g clip-path="url(#clip0_1_445)">
<path d="M99.1322 29.0457H95.604V32.5752H99.1322V29.0457Z" fill="white"/>
<path d="M99.1335 32.5764H102.661V39.6367H99.1323L99.1335 32.5764Z" fill="white"/>
<path d="M131.255 32.5786H127.728H124.199H120.609H119.456L117.08 32.5774V39.6365L120.609 39.6376V36.1081H124.199L124.197 50.5559H127.725L127.726 36.1081H131.255V32.5786Z" fill="white"/>
<path d="M113.076 50.6374L113.079 32.6601L109.55 32.6589L109.549 43.4165H102.66L101.503 43.4153H99.1323L99.1311 54.1634H102.659L102.66 46.946H109.549V50.6363L109.548 53.8775V54.1646L116.854 54.1658V50.6374H113.076Z" fill="white"/>
<path d="M95.1092 43.3315H91.5798V46.8611H95.1092V43.3315Z" fill="white"/>
<path d="M152.609 29.0503H149.08V32.5798H152.609V29.0503Z" fill="white"/>
<path d="M134.784 25.8315H131.256V29.3611H134.784V25.8315Z" fill="white"/>
<path d="M138.373 32.5798H141.901V36.1094L138.373 36.1082V32.5798Z" fill="white"/>
<path d="M134.783 36.1082H131.255V39.6389H134.783V36.1082Z" fill="white"/>
<path d="M131.254 50.6375H127.725V54.167H131.254V50.6375Z" fill="white"/>
<path d="M164.243 50.6423H160.713V54.1695H164.243V50.6423Z" fill="white"/>
<path d="M160.015 32.5811H152.795V36.1106H152.823V44.8405C152.823 47.8548 150.382 50.2949 147.366 50.2937C144.355 50.2937 141.914 47.8536 141.914 44.8393V42.0542H141.901V39.6389H138.373V44.4671L138.391 44.9846C138.391 50.0538 142.502 54.1683 147.572 54.1683C152.644 54.1683 156.753 50.055 156.753 44.9858V36.1106H160.015V32.5811Z" fill="white"/>
<path d="M230.371 46.2135V32.6282H236.599V36.0715H234.509V54.1375C233.265 54.1375 232.085 54.1552 230.908 54.1162C230.755 54.1115 230.588 53.8255 230.471 53.6424C227.799 49.4535 225.134 45.2611 222.466 41.0698C222.346 40.8831 222.213 40.7047 221.989 40.3821V54.0914H215.67V50.6635H217.813V36.1188H215.677V32.5952C216.24 32.5952 216.795 32.5952 217.35 32.5952C218.562 32.5952 219.775 32.6235 220.985 32.581C221.463 32.5644 221.679 32.776 221.907 33.1375C224.672 37.5084 227.45 41.8721 230.226 46.2371C230.276 46.2288 230.324 46.2206 230.374 46.2135H230.371Z" fill="white"/>
<path d="M188.647 50.6555H190.469V54.0988H185.184V39.2799C185.138 39.2646 185.092 39.2492 185.046 39.2338C183.369 41.7519 181.691 44.2699 179.96 46.8695C178.249 44.316 176.598 41.8523 174.946 39.3874C174.904 39.4004 174.864 39.4134 174.823 39.4253V54.0964H169.493V50.6637H171.285V36.1261H169.498V32.5978C171.07 32.5978 172.632 32.5848 174.191 32.6167C174.354 32.6202 174.55 32.8601 174.667 33.0338C176.281 35.4455 177.884 37.8655 179.491 40.2808C179.625 40.484 179.773 40.6778 179.954 40.9307C180.112 40.7168 180.238 40.5584 180.351 40.3906C181.989 37.9447 183.631 35.5011 185.253 33.0433C185.472 32.71 185.699 32.5753 186.105 32.5836C187.543 32.6108 188.982 32.5942 190.466 32.5942V36.0919C190.076 36.0919 189.665 36.1226 189.261 36.0836C188.756 36.0363 188.632 36.2289 188.634 36.7217C188.654 40.8172 188.646 44.9139 188.646 49.0095V50.6531L188.647 50.6555Z" fill="white"/>
<path d="M213.791 32.6709V36.1922H211.943C211.943 36.471 211.943 36.6908 211.943 36.9094C211.943 39.7311 211.98 42.5529 211.937 45.3746C211.85 50.9519 206.411 55.3299 200.933 53.893C196.898 52.8343 194.113 49.2149 194.142 45.1194C194.162 42.3815 194.146 39.6437 194.147 36.9059C194.147 36.7014 194.147 36.497 194.147 36.2335H192.318V32.6744C192.556 32.6744 192.798 32.6744 193.04 32.6744C194.419 32.6744 195.798 32.6933 197.177 32.6638C197.65 32.6532 197.825 32.8245 197.799 33.2723C197.787 33.4803 197.796 33.6906 197.796 33.8998C197.8 37.6196 197.788 41.3405 197.814 45.0603C197.832 47.6481 199.377 49.6592 201.842 50.3906C203.586 50.907 205.811 50.1165 207.045 48.5768C207.891 47.5216 208.284 46.3341 208.282 44.9882C208.275 41.1633 208.283 37.3383 208.284 33.5134C208.284 32.6709 208.282 32.6721 209.096 32.6721C210.64 32.6721 212.185 32.6721 213.791 32.6721V32.6709Z" fill="white"/>
<path d="M21.2458 17.6513C21.2647 17.3606 21.2836 17.0699 21.3073 16.7083C21.1502 16.8643 21.0309 16.9848 20.9104 17.1042C20.8927 17.0935 20.8738 17.0817 20.8561 17.0711C20.9576 16.8312 21.0592 16.5913 21.1608 16.3503C21.1372 16.3361 21.1147 16.3231 21.0911 16.3089C20.9482 16.4779 20.8053 16.6469 20.6293 16.8548C20.608 16.7508 20.5738 16.6847 20.5891 16.6362C20.7545 16.0974 20.7616 15.5042 21.2884 15.1214C21.8364 14.7243 22.316 14.2151 22.8192 13.746C23.0578 13.5226 23.2468 13.265 23.2515 12.8916C23.2527 12.7971 23.3283 12.7002 23.3814 12.6128C23.6177 12.2228 23.8586 11.8376 24.0949 11.4477C24.109 11.4241 24.0972 11.3803 24.0972 11.3342C23.62 11.3342 23.1499 11.365 22.6834 11.3272C21.7703 11.2539 20.9482 10.8864 20.2111 10.305C20.0989 10.2164 20.0434 10.0427 19.9607 9.91038C19.9028 9.8194 19.8461 9.72841 19.7812 9.64333C19.7398 9.58898 19.6477 9.54998 19.6442 9.49799C19.6229 9.16832 19.4729 9.00407 19.1681 8.9698C19.1351 8.96626 19.1327 8.75002 19.0985 8.63776C19.0642 8.52433 19.0347 8.36363 18.9579 8.32227C18.7772 8.22538 18.7299 8.09303 18.6768 7.88979C18.5634 7.45141 18.3968 7.02602 18.222 6.61127C18.1063 6.33713 17.9976 6.09962 18.4264 5.92001C18.17 5.71559 17.9645 5.55253 17.7212 5.35874C18.0283 5.31974 18.0744 5.13895 18.0165 4.87191C17.9503 4.57177 17.9149 4.26337 17.8629 3.9396C17.9503 3.95732 18.033 3.97505 18.1098 3.99041C18.2244 3.72927 17.7661 3.31688 18.3177 3.24244C18.3248 3.08764 18.3319 2.96003 18.339 2.80523C18.6886 3.27198 19.0193 3.71391 19.3512 4.15465C19.3902 4.12393 19.4304 4.09321 19.4693 4.06367C19.1303 3.41968 18.7913 2.77569 18.4523 2.1317C18.5008 2.10098 18.548 2.07144 18.5965 2.04072C19.0382 2.524 19.1374 3.25071 19.5863 3.75645C19.5048 3.32751 19.4233 2.89858 19.3418 2.46965C19.363 2.45901 19.3843 2.44956 19.4067 2.43893C19.5142 2.68589 19.6288 2.9293 19.728 3.17981C19.8969 3.60401 20.0422 4.04004 20.2253 4.45833C20.3564 4.75965 20.4934 5.07633 20.6966 5.31856C21.0049 5.68605 21.3439 6.03936 21.7219 6.31704C22.2581 6.71052 22.8369 7.03665 23.4086 7.36987C23.4783 7.41005 23.6543 7.35333 23.7074 7.27889C23.796 7.15718 23.8681 6.9823 23.8657 6.83223C23.8634 6.68098 23.7606 6.5321 23.6874 6.34422C24.0547 6.31704 24.1338 6.19297 23.9118 5.88575C23.8326 5.77585 23.7972 5.49108 23.8634 5.42018C24.0724 5.19449 24.0157 4.95935 23.9933 4.70648C23.9862 4.62731 24.0051 4.52923 24.0476 4.46542C24.2153 4.21019 24.3843 3.97268 24.3406 3.61701C24.3323 3.54493 24.5484 3.44095 24.7327 3.29561V2.38221H25.1733C25.1733 2.09507 25.178 1.82211 25.1721 1.54798C25.1662 1.31756 25.2312 1.14149 25.4521 1.08478C25.6847 1.02451 25.7166 1.22775 25.7816 1.39318C25.8229 1.49717 25.8855 1.59051 25.9387 1.68741C25.9694 1.68032 26.0001 1.67323 26.032 1.66614C26.0261 1.53852 26.0084 1.41091 26.0178 1.28447C26.0356 1.05405 26.0521 0.821273 26.1064 0.600308C26.1277 0.51523 26.2647 0.389977 26.3226 0.405339C26.4076 0.426608 26.4903 0.547134 26.5328 0.646391C26.5777 0.750375 26.5671 0.880354 26.5966 0.993791C26.612 1.05524 26.6592 1.10605 26.723 1.21594C26.7655 0.84845 26.7856 0.558951 26.8388 0.277722C26.8577 0.176102 26.9581 0.0922063 27.0207 0.0012207C27.1093 0.0827533 27.2427 0.147743 27.2793 0.250545C27.375 0.525865 27.4294 0.81891 27.4979 1.10486C27.5368 1.26675 27.5687 1.43099 27.6113 1.62715C27.7459 1.22421 27.8333 0.86972 27.9845 0.549498C28.0471 0.418337 28.2562 0.271814 28.3778 0.29072C28.5727 0.321443 28.5479 0.524683 28.5042 0.725561C28.2869 1.72522 28.3637 2.74615 28.3412 3.76117C28.333 4.17002 28.2219 4.57532 28.1676 4.98298C28.157 5.06687 28.1641 5.17913 28.2089 5.24057C28.5267 5.67896 28.529 6.09489 28.1971 6.51674C28.118 6.61718 28.0152 6.69634 27.9467 6.80387C27.8877 6.89722 27.8227 7.01775 27.8286 7.12173C27.8463 7.41478 27.8983 7.70546 27.9455 8.06349C28.1215 7.8697 28.2715 7.65937 28.4605 7.50813C28.8125 7.22572 29.1751 6.95276 29.559 6.72588C29.7858 6.59118 30.0705 6.58173 30.2666 6.81687C30.5938 7.21035 30.895 7.62747 31.2091 8.03631C30.8902 8.05522 30.5784 8.04459 30.2772 8.09776C29.8992 8.16511 29.7362 8.52905 29.6216 8.854C28.9791 10.6714 28.1322 12.2985 26.4395 13.213C26.1997 13.343 25.9907 13.5415 25.7911 13.7897C25.8926 13.7897 25.9942 13.7826 26.0946 13.792C26.1667 13.7991 26.2812 13.805 26.3001 13.8499C26.462 14.2281 26.6911 14.0756 26.925 13.9669C27.0561 13.9055 27.1931 13.8547 27.3301 13.8157C27.5853 13.7436 27.6715 13.5817 27.7306 13.291C27.8215 12.8444 28.027 12.4249 28.1841 11.9936C28.1912 11.9735 28.216 11.9428 28.2278 11.9452C28.7145 12.0302 28.7523 11.3862 29.1492 11.2905C29.5413 11.196 29.6512 10.7671 29.8591 10.4492C30.4473 9.55353 31.0603 8.67676 31.6769 7.80353C31.7608 7.68419 31.9202 7.62865 32.0726 7.52349C32.2037 6.45765 33.4806 4.84591 34.2554 4.90263C34.1527 5.02315 34.0853 5.11768 34.0038 5.19567C33.6152 5.56789 33.2042 5.9141 32.8368 6.30877C32.4376 6.73888 32.2947 7.28361 32.3762 7.89452C32.4104 8.14857 32.4222 8.40616 32.4447 8.66258C32.4718 8.67321 32.5002 8.68385 32.5274 8.69448C33.0506 7.77517 33.5739 6.85587 34.0971 5.93656L34.2035 6.00273C33.64 7.25407 33.2408 8.59286 32.4364 9.72841C33.0329 9.48618 33.6448 9.22858 33.9117 8.57396C34.22 7.81653 34.4255 7.0083 34.6653 6.21897C34.8189 5.71323 34.6889 5.23585 34.461 4.77619C34.5047 4.75965 34.5484 4.74311 34.5921 4.72775C34.7078 5.04088 34.872 5.34456 34.9263 5.66951C35.0126 6.18824 34.8791 6.68571 34.6665 7.16073C34.5519 7.41596 34.4456 7.68655 34.396 7.96305C34.246 8.79965 33.7841 9.34202 33.0979 9.69651C33.0483 9.7225 33.001 9.75322 32.9526 9.78158C32.9679 9.81467 32.9833 9.84776 32.9986 9.88084C33.0837 9.87139 33.1711 9.84657 33.255 9.85603C33.3672 9.86784 33.5384 9.87139 33.5727 9.9411C33.6223 10.0451 33.6105 10.2235 33.5609 10.3381C33.2266 11.1097 32.7329 11.7502 32.1364 12.3008C31.9592 12.4651 31.7773 12.5927 31.6993 12.8881C31.6497 13.0748 31.3438 13.1752 31.1654 13.3324C31.0946 13.395 31.0709 13.5155 31.0083 13.5935C30.8985 13.7306 30.7934 13.8889 30.654 13.9764C30.3268 14.1808 29.9795 14.3486 29.5555 14.5778H30.3233C30.3363 14.605 30.3481 14.631 30.3611 14.6582C30.2772 14.7243 30.2004 14.8283 30.1083 14.8496C29.4374 14.9985 28.7688 15.0209 28.1286 14.7043C27.9928 14.6369 27.8475 14.5341 27.7648 14.4041C27.5876 14.1253 27.401 14.1536 27.1459 14.2647C26.8411 14.3982 26.5033 14.4467 26.3261 14.8071C26.299 14.8626 26.2151 14.93 26.1678 14.9229C25.6729 14.8413 25.5123 15.2431 25.2642 15.594C25.2808 15.4357 25.2772 15.2714 25.3162 15.1202C25.3847 14.8531 25.3162 14.6747 25.0776 14.579C24.8402 14.4833 24.604 14.3805 24.3618 14.3061C24.0795 14.2186 23.7783 14.4278 23.6248 14.8295C23.4228 15.3589 23.2432 15.8989 23.0531 16.433C23.0294 16.498 22.9975 16.5606 22.9527 16.6658C22.8971 16.5594 22.8582 16.485 22.8251 16.42C22.3373 16.8489 21.8471 17.2826 21.3557 17.7151C21.3214 17.6938 21.2872 17.6713 21.2541 17.6501L21.2458 17.6513ZM27.9916 13.4257C28.0329 13.4659 28.0755 13.5049 28.1168 13.5451C28.5952 13.1291 29.0629 12.6955 29.5567 12.3008C30.6103 11.4583 31.4785 10.4338 32.1683 9.22976C32.2238 9.13287 32.2781 8.97453 32.2415 8.88827C32.1104 8.57514 31.9415 8.27973 31.7596 7.9276C31.0863 9.20376 29.9595 10.181 29.461 11.6462C29.3771 11.6119 29.3122 11.5848 29.22 11.5469C29.1681 11.7726 29.1185 11.9782 29.0736 12.185C29.0228 12.4249 28.8846 12.5348 28.6342 12.5549C28.7251 12.3055 28.8031 12.0917 28.881 11.8766L28.7393 11.8081C28.4901 12.3469 28.2408 12.8845 27.9904 13.4234L27.9916 13.4257ZM33.5384 10.1585C33.5113 10.1219 33.4853 10.0864 33.4581 10.0498C33.1132 10.0758 32.7695 10.1054 32.4246 10.1278C32.1565 10.1455 31.9521 10.2507 31.7867 10.5024C31.5942 10.7931 31.3662 11.0589 31.1324 11.313C30.732 11.749 30.315 12.1661 29.852 12.647C30.2866 12.647 30.667 12.6447 31.0461 12.647C31.3934 12.6494 31.6934 12.5336 31.9415 12.263C32.1045 12.0846 32.2994 11.9345 32.4411 11.7395C32.8179 11.222 33.1735 10.6867 33.5373 10.1585H33.5384ZM28.7393 14.6085C28.4901 14.4207 28.2869 14.2682 28.0849 14.1158C28.0991 14.0922 28.1121 14.0685 28.1263 14.0449C28.3719 14.1359 28.6188 14.2269 28.8645 14.3179C28.8834 14.2824 28.9011 14.2458 28.92 14.2103C28.8255 14.1643 28.731 14.1182 28.6365 14.0721C28.659 14.0366 28.6814 14.0024 28.7039 13.9669C29.3039 13.8771 29.9382 14.0886 30.5182 13.7601C30.4166 13.6881 30.3162 13.6632 30.2134 13.6491C29.7622 13.5864 29.2791 13.7649 28.8598 13.4435C28.8385 13.4269 28.7913 13.4328 28.7653 13.447C28.431 13.6408 28.0979 13.8381 27.7648 14.0343C27.9692 14.4301 28.203 14.566 28.7393 14.6062V14.6085ZM31.3662 12.9873C31.3592 12.9578 31.3521 12.9294 31.345 12.8999C30.8335 12.8999 30.3174 12.9495 29.8142 12.8822C29.4952 12.8385 29.3275 12.9318 29.1574 13.2308C29.9394 13.317 30.6788 13.3974 31.3662 12.9885V12.9873Z" fill="white"/>
<path d="M55.1496 60.834C55.1496 60.834 22.5949 72.2651 16.0511 30.4507C16.0511 30.4507 14.7542 57.2879 39.4575 63.8318C39.4575 63.8318 9.23215 62.8935 9.94086 21.5802C9.94086 21.5802 2.24426 58.0737 35.8573 64.7286C35.8573 64.7286 3.26362 64.4238 0.713442 18.873C0.713442 18.873 -8.47972 66.0071 39.1008 66.5058C39.1008 66.5058 52.1753 66.0355 55.1484 60.8351L55.1496 60.834Z" fill="white"/>
<path d="M12.8088 70.1985C13.4939 69.9421 14.1235 69.7128 14.7483 69.4718C15.3118 69.2544 15.8598 68.9932 16.4327 68.8054C17.3292 68.5099 18.2364 68.2417 19.1483 67.9936C19.994 67.7632 20.8433 67.5386 21.7032 67.3791C22.6528 67.2019 23.5907 66.9396 24.5841 67.0341C25.2148 67.0944 25.8586 67.0187 26.4964 67.0128C26.6972 67.0105 26.898 67.0424 27.0988 67.0471C27.4839 67.0554 27.8725 67.0246 28.2552 67.0613C30.099 67.2421 31.8295 67.8187 33.4902 68.6187C35.3175 69.499 36.9239 70.6841 38.3968 72.0785C39.8284 73.4326 41.2565 74.8045 42.7991 76.0239C44.8721 77.6617 47.3018 78.4605 49.9488 78.5042C50.8087 78.5184 51.6698 78.3955 52.5628 78.3328C52.1895 78.5278 51.8328 78.7429 51.4537 78.9071C50.882 79.1553 50.3138 79.3892 49.6724 79.4613C48.7251 79.5677 47.7955 79.8264 46.8482 79.9387C45.2666 80.1242 43.7216 79.8985 42.2215 79.368C39.9466 78.5633 38.0756 77.1701 36.4774 75.387C35.9565 74.8057 35.4321 74.222 34.9608 73.6004C34.4233 72.8926 33.8989 72.1671 33.4489 71.4026C32.5063 69.8003 31.1361 68.8195 29.3383 68.4272C28.6686 68.2807 27.9894 68.1046 27.3114 68.0881C26.4397 68.0668 25.5526 68.1212 24.6951 68.2724C23.7183 68.445 22.7757 68.8136 21.8 68.9968C20.8232 69.1799 19.9361 69.5864 19.0195 69.9244C18.6427 70.0626 18.2895 70.2635 17.9186 70.4206C17.6588 70.5305 17.3694 70.5778 17.1261 70.7113C16.2248 71.2088 15.3342 71.7263 14.446 72.2474C14.2097 72.3857 14.0774 72.4129 13.9227 72.1139C13.5967 71.4853 13.2128 70.885 12.8088 70.1997V70.1985Z" fill="white"/>
<path d="M48.9863 71.7678C49.4434 71.5279 49.8332 71.3046 50.2372 71.1144C51.4597 70.5425 52.4424 69.6562 53.3626 68.7027C54.0618 67.9771 54.7115 67.2032 55.3505 66.4233C55.973 65.6635 56.5471 64.8659 57.1554 64.0943C57.2995 63.9111 57.5062 63.7788 57.6656 63.6039C58.2326 62.9812 58.763 62.3219 59.3618 61.731C59.7882 61.3104 60.2997 60.9748 60.7769 60.6085C61.1808 60.2989 61.5801 59.9787 62.0041 59.6963C62.8156 59.1563 63.6436 58.6399 64.5283 58.0715C64.5059 58.1826 64.5094 58.2181 64.4929 58.2346C63.3471 59.415 62.5038 60.7952 61.7514 62.2498C61.169 63.3759 60.4804 64.4464 59.8626 65.5548C59.3406 66.4918 58.6838 67.3083 57.8594 67.9925C57.4129 68.3635 56.9924 68.7653 56.5317 69.1151C56.2352 69.3396 55.8915 69.5062 55.5584 69.6775C54.8958 70.0214 54.2248 70.3487 53.5598 70.6878C53.4583 70.7398 53.3673 70.8119 53.2716 70.8745C53.2846 70.9088 53.2964 70.943 53.3094 70.9773C53.7016 70.8792 54.1044 70.8119 54.4823 70.676C55.0942 70.4562 55.6848 70.1773 56.2955 69.9505C56.5577 69.8536 56.8435 69.8229 57.1199 69.7661C58.0377 69.5783 58.9508 69.3549 59.8756 69.2167C60.8938 69.0642 61.925 69.0028 62.9467 68.8799C63.7086 68.7877 64.4752 68.7027 65.2252 68.542C66.3722 68.295 67.5297 68.0528 68.6377 67.6794C69.3901 67.4253 70.0823 66.9739 70.7733 66.5639C71.3627 66.2142 71.9131 65.7994 72.5628 65.3563C72.4033 65.6446 72.3135 65.8963 72.1505 66.083C71.4961 66.8321 70.8477 67.5919 70.1378 68.2867C69.6488 68.7641 69.0653 69.1458 68.5172 69.5605C68.2538 69.7602 67.9916 69.9765 67.6975 70.1206C66.5883 70.6665 65.4934 71.255 64.3441 71.7005C62.5274 72.4047 60.6257 72.7769 58.6767 72.9412C57.7223 73.0215 56.8128 72.8254 55.8903 72.7013C53.6555 72.4012 51.4443 71.9155 49.1824 71.8257C49.1375 71.8234 49.0938 71.8009 48.9851 71.7678H48.9863Z" fill="white"/>
<path d="M59.7326 67.8366C59.794 67.7586 59.8224 67.709 59.8625 67.6735C61.3508 66.4246 62.5001 64.8955 63.386 63.1857C64.2648 61.4877 65.0574 59.7448 65.8523 58.0054C66.5149 56.5568 67.2367 55.1459 68.0351 53.7646C68.6553 52.6916 69.501 51.8137 70.2168 50.827C70.2853 50.7325 70.3609 50.6415 70.5026 50.5942C70.5003 50.6332 70.5062 50.6734 70.4944 50.7089C70.1648 51.7511 69.7833 52.7803 69.5187 53.839C69.3144 54.6543 69.2895 55.5134 69.1254 56.3405C68.8289 57.8459 68.595 59.3785 67.9017 60.7669C67.2201 62.1329 66.398 63.409 65.1578 64.3602C64.8601 64.5883 64.6002 64.8648 64.351 65.2051C64.4479 65.1732 64.5565 65.159 64.6392 65.1059C65.2038 64.7431 65.7673 64.378 66.3224 63.9998C66.626 63.7931 66.9071 63.5544 67.2048 63.3405C67.7918 62.9187 68.3564 62.4566 68.9801 62.0974C70.0774 61.4664 71.2066 60.8874 72.3346 60.312C73.0504 59.9468 73.797 59.6444 74.5128 59.2804C74.8907 59.089 75.2285 58.8196 75.5935 58.601C75.7731 58.4934 75.9963 58.4497 76.1617 58.3257C76.5798 58.0137 76.9897 57.6888 77.3771 57.3402C78.1721 56.6241 78.9032 55.8501 79.43 54.9001C79.4607 54.9166 79.4914 54.932 79.5233 54.9485C79.3828 55.394 79.2635 55.8478 79.0957 56.2826C78.843 56.9361 78.5725 57.5836 78.2736 58.2169C78.1236 58.5348 77.9039 58.8231 77.6972 59.1126C77.3251 59.6349 76.9708 60.1749 76.5503 60.6558C75.8321 61.4782 75.036 62.2309 74.1277 62.8418C73.3245 63.383 72.4965 63.8923 71.6566 64.3744C71.0838 64.7041 70.4932 65.0279 69.8719 65.2417C68.7332 65.6329 67.5756 65.9779 66.4086 66.2757C64.7125 66.7093 63.0009 67.0792 61.2988 67.4857C60.8535 67.592 60.4165 67.7326 59.9747 67.8508C59.9145 67.8673 59.8424 67.8437 59.7302 67.8342L59.7326 67.8366Z" fill="white"/>
<path d="M62.2274 73.6714C61.9592 73.8829 61.7076 74.1193 61.4206 74.3001C60.3292 74.9901 59.272 75.7759 58.0188 76.134C56.234 76.6432 54.4422 77.1785 52.5476 77.0875C50.5939 76.993 48.7122 76.5842 46.9428 75.7405C44.8486 74.742 42.8772 73.5356 40.9637 72.2204C39.7813 71.4074 38.5139 70.7174 37.2855 69.9706C37.2571 69.9528 37.2335 69.9268 37.1343 69.8418C37.5453 69.8784 37.8761 69.9209 38.2092 69.9339C39.0159 69.967 39.8286 69.941 40.6306 70.0261C41.3795 70.1065 42.1023 70.0367 42.8099 69.8359C43.5009 69.6397 44.1718 69.3727 44.8498 69.134C45.1923 69.0135 45.5349 68.8917 45.8727 68.7582C46.0369 68.6932 46.1892 68.5999 46.3487 68.5231C47.0113 68.2052 47.6681 67.8732 48.3402 67.5754C49.5284 67.0484 50.7191 66.5238 51.9239 66.0346C52.4897 65.8053 53.0897 65.6612 53.672 65.4756C54.0453 65.3563 54.415 65.2287 54.7871 65.1082C54.9406 65.0585 55.0977 65.0172 55.2855 65.0432C54.8946 65.3161 54.4811 65.5607 54.1197 65.8691C53.6331 66.2839 53.1807 66.7424 52.7247 67.1926C52.2133 67.6971 51.7266 68.2265 51.2069 68.7216C50.7781 69.1304 50.3352 69.531 49.8615 69.8855C49.4481 70.1951 48.9934 70.4527 48.5398 70.702C47.6681 71.1806 46.7196 71.4464 45.7404 71.5599C45.2396 71.6178 44.7222 71.5197 44.2131 71.5091C43.717 71.4972 43.2209 71.5067 42.7024 71.5788C43.1961 71.6969 43.6839 71.8659 44.1848 71.9238C46.1762 72.1507 48.0933 72.6706 50.0127 73.226C51.7113 73.7175 53.437 74.1287 55.1721 74.4702C56.6852 74.768 58.2267 74.7597 59.741 74.4029C60.5335 74.2162 61.3438 74.0649 62.0525 73.623C62.088 73.6005 62.1376 73.6005 62.1801 73.5911C62.1955 73.6194 62.2108 73.6478 62.2262 73.6762L62.2274 73.6714Z" fill="white"/>
<path d="M69.7832 60.0837C70.2391 58.8312 70.7258 57.5161 71.1888 56.1938C71.2857 55.9173 71.3164 55.6113 71.3365 55.3159C71.379 54.7002 71.3849 54.0811 71.4227 53.4654C71.5349 51.589 71.581 49.7043 71.7936 47.8385C72.0121 45.9278 72.318 44.0195 72.8673 42.1667C73.0149 41.668 73.2346 41.1906 73.4969 40.7168C73.472 40.985 73.4083 41.2568 73.4283 41.5227C73.485 42.2683 73.5382 43.0174 73.6622 43.7524C73.8618 44.9317 74.1418 46.0979 74.3414 47.2784C74.4973 48.2036 74.6544 49.1383 74.6804 50.0718C74.7123 51.225 74.5446 52.363 74.1394 53.4701C73.7792 54.4533 73.3126 55.3631 72.7007 56.2056C72.5909 56.3569 72.5117 56.5306 72.4184 56.6936C72.4421 56.722 72.4657 56.7504 72.4893 56.7787C72.6098 56.683 72.7645 56.6086 72.8437 56.4869C73.1874 55.9587 73.5016 55.4116 73.8394 54.8798C74.2646 54.2087 74.6686 53.521 75.1422 52.8852C75.7435 52.0782 76.3848 51.2971 77.0475 50.5385C77.8802 49.5849 78.7508 48.6633 79.6107 47.7345C79.8103 47.5195 80.0713 47.354 80.2402 47.1189C80.8344 46.2882 81.4758 45.4776 81.9565 44.5831C82.4113 43.7359 82.6841 42.7929 83.0137 41.954C83.146 43.7583 82.8365 45.5898 82.2317 47.3623C81.8679 48.4269 81.4202 49.4762 80.8852 50.4653C80.0749 51.9612 79.0685 53.3189 77.892 54.5714C77.1231 55.3891 76.1746 55.8984 75.297 56.5329C74.8836 56.8307 74.4607 57.1178 74.0296 57.3884C73.6835 57.6059 73.3067 57.7725 72.9618 57.9923C71.9519 58.6351 70.9514 59.292 69.9486 59.9467C69.8612 60.0046 69.7867 60.0837 69.7856 60.0849L69.7832 60.0837Z" fill="white"/>
<path d="M82.448 28.8875C82.6524 29.5515 82.8745 30.2109 83.054 30.882C83.1851 31.3736 83.2548 31.8805 83.3611 32.3792C83.6706 33.8314 83.6221 35.2966 83.4024 36.7453C83.1402 38.4717 82.6087 40.1354 81.7996 41.6822C81.3117 42.6145 80.7117 43.4924 80.1093 44.3574C79.8022 44.7981 79.3687 45.1479 79.0061 45.552C77.8166 46.8754 76.7866 48.3123 75.9043 49.8933C75.9043 49.7657 75.8866 49.6357 75.9066 49.5117C76.0661 48.5427 76.085 47.569 76.007 46.5942C75.9728 46.17 75.8913 45.7458 75.798 45.3299C75.6657 44.7402 75.5109 44.1541 75.3491 43.5716C75.0373 42.4573 74.7148 41.3466 74.3947 40.2347C74.2955 39.892 74.1656 39.5564 74.0912 39.209C73.8856 38.2472 73.5998 37.2865 73.536 36.3128C73.4498 34.9894 73.536 33.6553 73.5608 32.326C73.5655 32.0755 73.621 31.825 73.7203 31.5721C73.8041 31.8285 73.8785 32.0885 73.9742 32.3402C74.2353 33.0255 74.4585 33.731 74.7833 34.3856C75.316 35.4573 75.9468 36.4794 76.4819 37.5488C77.115 38.8155 77.6394 40.1307 77.7257 41.5675C77.7895 42.6286 77.6926 43.6827 77.4079 44.713C77.3831 44.804 77.3737 44.8997 77.3654 44.9943C77.3607 45.051 77.3749 45.1101 77.3914 45.2873C77.493 45.1278 77.5686 45.0593 77.5827 44.9801C77.9914 42.7775 78.7911 40.6967 79.6215 38.6347C80.153 37.316 80.9125 36.0895 81.4547 34.7743C81.8504 33.8149 82.1138 32.7904 82.3346 31.773C82.539 30.8348 82.5803 29.867 82.337 28.9123C82.3748 28.9052 82.4114 28.8981 82.4492 28.8898L82.448 28.8875Z" fill="white"/>
<path d="M78.2608 38.7933C78.1273 38.3643 77.969 37.7038 77.7198 37.0811C77.3513 36.1606 76.9461 35.2507 76.4996 34.3645C76.2256 33.8198 75.8323 33.3353 75.5157 32.8095C75.0196 31.9883 74.5341 31.1599 74.0628 30.3245C73.7746 29.8117 73.4994 29.2894 73.2585 28.7529C72.7057 27.5229 72.4647 26.2219 72.5072 24.8784C72.5332 24.0382 72.6253 23.1993 72.76 22.3556C72.7883 22.4371 72.8368 22.5163 72.8415 22.599C72.9076 23.8657 73.49 24.9446 74.1302 25.982C74.6641 26.847 75.3078 27.6446 75.8748 28.4906C76.5693 29.5246 77.1552 30.614 77.6619 31.759C78.0659 32.6701 78.0883 33.626 78.2749 34.563C78.2915 34.6434 78.3139 34.7226 78.3352 34.8017C78.3364 34.8076 78.3541 34.81 78.4202 34.8348C78.4202 34.5418 78.4131 34.2688 78.4214 33.9947C78.4533 32.9643 78.4876 31.9327 78.5265 30.9023C78.5383 30.5821 78.5643 30.2619 78.5974 29.9429C78.7439 28.5119 78.9411 27.0845 79.0262 25.65C79.0699 24.9138 79.0073 24.1434 78.8301 23.4285C78.6222 22.5931 78.2348 21.8026 77.9348 21.0156C78.2537 21.3004 78.6506 21.5994 78.9777 21.9621C79.3581 22.384 79.6947 22.8495 80.0207 23.3163C80.544 24.0631 80.87 24.8996 81.0732 25.7859C81.1547 26.1439 81.2527 26.4984 81.3342 26.8564C81.7925 28.8877 81.3342 30.7972 80.5676 32.6677C80.2747 33.3838 79.9947 34.1057 79.7243 34.8301C79.2045 36.2185 78.6966 37.6116 78.2608 38.7933Z" fill="white"/>
<path d="M77.4692 28.9242C77.1514 28.4409 76.8349 28.0049 76.5656 27.5405C76.1911 26.8965 75.8273 26.243 75.5025 25.5731C75.0489 24.6348 74.6202 23.6836 74.2115 22.7253C73.9374 22.0837 73.6811 21.4291 73.4744 20.7626C73.1838 19.8244 72.9523 18.8673 72.6807 17.9232C72.5767 17.5592 72.4539 17.1988 72.3015 16.8526C71.8834 15.9002 71.4451 14.9549 71.053 13.9683C71.4463 14.3133 71.8479 14.6501 72.2318 15.0057C73.0433 15.7573 73.8784 16.4851 74.6414 17.2839C75.675 18.3651 76.4664 19.6011 76.927 21.0545C77.2306 22.0116 77.4668 22.9747 77.5601 23.9649C77.6275 24.6821 77.592 25.41 77.5755 26.132C77.5554 27.0442 77.507 27.9564 77.4692 28.923V28.9242Z" fill="white"/>
<path d="M48.9093 14.9797H49.0759C49.52 14.8403 49.8554 14.7694 50.0763 14.7694H51.2457C51.4678 14.7694 51.6343 14.7008 51.7465 14.559C51.8587 14.4184 51.9402 14.292 51.9957 14.1797C51.717 13.8418 51.3839 13.6445 50.9953 13.5889C50.6055 13.5322 50.3267 13.5038 50.1602 13.5038C50.0492 13.5038 49.7161 13.6066 49.1597 13.8087C48.6022 14.0108 48.2679 14.1407 48.1593 14.1998C47.8793 14.1407 47.7128 14.1998 47.6584 14.3723C47.7683 14.4881 47.9207 14.6181 48.1167 14.7635C48.3104 14.9076 48.5762 14.9797 48.9093 14.9797ZM46.3993 60.5163C60.218 60.5163 71.4605 49.2671 71.4605 35.4432C71.4605 21.6193 60.218 10.3713 46.3993 10.3713C32.5806 10.3713 21.3369 21.6193 21.3369 35.4432C21.3369 49.2671 32.5806 60.5163 46.3993 60.5163ZM22.6173 36.0754H26.429C26.4822 37.7852 26.7562 39.4395 27.2145 41.0158C27.1058 40.9898 27.0113 40.9413 26.9239 40.8114L26.8058 40.6956L26.3888 40.1107L25.6943 40.3612C25.6943 40.7523 25.5549 40.8917 25.2785 40.7795C25.1651 40.666 25.0529 40.6105 24.9443 40.6105C24.4989 40.6105 24.2344 40.848 24.1505 41.3206C24.0666 41.7945 24.0241 42.1147 24.0241 42.2801L24.61 43.7843C24.7222 43.9521 24.8876 43.9781 25.1108 43.8659C25.3329 44.1459 25.5006 44.3397 25.6128 44.4508C25.7238 44.5619 25.8679 44.6174 26.0428 44.6174C26.2176 44.6174 26.3026 44.5347 26.3026 44.3669H26.3888C26.5046 44.478 26.6204 44.6056 26.7349 44.7426C26.8495 44.8821 26.9948 45.0061 27.1696 45.1184V45.0392C27.3787 45.2366 27.6114 45.337 27.8724 45.337C27.9811 45.7305 28.1453 46.0401 28.3661 46.2646C28.587 46.4903 28.8067 46.6025 29.0276 46.6025C29.1386 46.6025 29.2497 46.5458 29.3619 46.4347C29.5284 46.8849 29.6666 47.165 29.7788 47.2772C29.8899 47.3328 30.0281 47.4179 30.1946 47.5301C30.3623 47.6424 30.4734 47.7263 30.5289 47.783H30.6943C30.6943 47.783 30.6978 47.7877 30.699 47.7901C30.7545 48.0134 30.8915 48.2367 31.1136 48.4589C31.2801 48.6267 31.4467 48.7673 31.6144 48.8807C31.5979 48.8855 31.5801 48.8961 31.5636 48.902C31.579 48.9079 31.5955 48.915 31.6097 48.9174C31.6309 48.9221 31.6498 48.9233 31.6699 48.9268C31.7266 48.9883 31.7809 49.0532 31.8388 49.1135L29.1434 51.8088C25.2301 47.6802 22.778 42.1584 22.6185 36.0718L22.6173 36.0754ZM40.9836 29.0447C40.9044 28.9939 40.8324 28.9501 40.765 28.9123L40.5123 28.6595C41.9415 27.4152 43.7629 26.6211 45.7662 26.4805V29.1297C45.7284 29.1002 45.6894 29.0825 45.6492 29.0683C45.6244 29.0399 45.6055 29.0116 45.5878 28.9832C45.5807 28.9785 45.5654 28.9809 45.5583 28.9738C45.5323 28.9466 45.465 28.9312 45.3575 28.9312C45.3209 28.9312 45.2961 28.943 45.2618 28.9466C45.2547 28.9395 45.2441 28.9395 45.2382 28.9324C45.1744 28.9395 45.1083 28.9419 45.0563 28.9596C44.9783 28.9868 44.9122 29.0009 44.859 29.0009C44.82 29.0009 44.7882 28.9915 44.7574 28.9761C44.6783 28.9171 44.6358 28.7942 44.6358 28.598C44.6311 28.6004 44.6275 28.6016 44.624 28.6051C44.624 28.5992 44.6216 28.5956 44.6216 28.5897C44.396 28.7008 44.2696 28.8107 44.2424 28.9206C44.2141 29.0305 44.1728 29.2243 44.1172 29.5031C44.0605 29.7253 43.92 29.8789 43.6967 29.9604C43.4711 30.0443 43.3034 30.1412 43.1912 30.2535L42.9372 30.0857H42.5156C42.4033 29.9758 42.3171 29.9049 42.2616 29.8789C42.2049 29.8505 42.1494 29.8092 42.0939 29.7525C42.0407 29.6981 42.0147 29.6981 42.0147 29.7525C41.8966 29.7525 41.8234 29.8163 41.7927 29.9403L41.5446 29.6922L41.612 29.6686V29.5031C41.4997 29.3909 41.293 29.2396 40.9859 29.0447H40.9836ZM39.6122 27.7602L37.0502 25.1973C39.3736 23.0751 42.4163 21.7304 45.7662 21.5791V25.2032C43.4144 25.3473 41.2741 26.2879 39.6122 27.7591V27.7602ZM41.0509 39.8235C41.1855 39.6924 41.1265 39.4501 41.1749 39.2847L40.8879 39.5506C41.1643 39.2741 41.3296 39.0649 41.3863 38.9255C41.443 38.7872 41.5257 38.6336 41.6379 38.4658C41.6379 38.4658 41.6462 38.4658 41.658 38.4658C41.7478 38.6466 41.8494 38.8203 41.9592 38.9893L39.6181 41.3313C38.6921 40.2654 38.0164 38.981 37.6739 37.5654C37.8759 37.5902 38.0802 37.6469 38.2574 37.7285C38.3413 37.7687 38.7877 38.2035 38.783 38.2035C38.894 38.2035 39.0086 38.1775 39.1208 38.122L39.4587 38.3725C39.4587 38.5958 39.4858 38.7352 39.5425 38.7884C39.5425 38.8439 39.6264 38.916 39.7941 38.9976C39.9618 39.0814 40.0764 39.1783 40.1343 39.2894L40.302 39.2067C40.302 39.1512 40.2867 39.0401 40.2595 38.8723C40.2311 38.7057 40.2465 38.6218 40.302 38.6218L40.4674 39.2067L40.6339 39.8731L40.6233 39.8838C40.7958 39.9169 40.9517 39.9169 41.0509 39.8212V39.8235ZM46.0343 42.4846C46.1725 42.6228 46.2422 42.7209 46.2422 42.7752C46.2422 42.943 46.0201 43.0257 45.576 43.0257C45.4071 43.0257 45.2961 43.1853 45.2406 43.5019C45.1839 43.8198 45.1295 44.0845 45.074 44.296C45.0268 44.2889 44.9831 44.2759 44.9346 44.2688C44.9382 44.2794 44.9441 44.2865 44.9488 44.2984C43.2692 44.0266 41.7419 43.2987 40.5099 42.2281L42.766 39.97C43.6034 40.77 44.6972 41.3006 45.9115 41.4234C45.9209 41.6125 45.9469 41.7318 45.9918 41.7768C45.8796 41.889 45.8252 42.0284 45.8252 42.1939C45.8252 42.2506 45.8949 42.3475 46.0331 42.4869L46.0343 42.4846ZM34.9264 42.6405C34.8697 41.9162 34.8131 41.4435 34.7564 41.2202C34.7008 40.9992 34.617 40.7487 34.5048 40.4687C34.4457 39.9677 34.3583 39.5931 34.2414 39.3426C34.1232 39.0921 33.8587 38.7447 33.4511 38.3016V37.8159C33.4511 37.7616 33.3956 37.5985 33.2834 37.3279V37.2428C33.2834 37.1294 33.3259 37.0585 33.4122 37.029C33.4996 37.0006 33.7925 36.9002 34.2933 36.7288C34.2933 36.3306 34.3217 36.0742 34.3796 35.9572L34.9843 36.0636C35.1556 36.0636 35.2418 35.9501 35.2418 35.7185C35.2418 35.6606 35.1863 35.4881 35.0753 35.2022C34.9631 34.915 34.9087 34.713 34.9087 34.5972C34.9087 34.4814 34.9914 34.3809 35.1568 34.2958C35.3245 34.2108 35.4899 34.1659 35.6541 34.1659C35.9305 34.1659 36.123 34.2616 36.2328 34.453C36.3427 34.6456 36.3982 34.8512 36.3982 35.071C36.3982 35.2352 36.384 35.3865 36.358 35.5236C36.3297 35.6618 36.3167 35.7859 36.3167 35.8934L36.4821 35.9761C36.3699 36.5256 36.149 36.7997 35.8182 36.7997C35.6529 36.7997 35.5277 36.73 35.445 36.5882C35.3623 36.4488 35.2654 36.3779 35.1568 36.3779C35.1013 36.3779 35.0729 36.4062 35.0729 36.4618C35.0729 36.5764 35.0989 36.6875 35.1544 36.8009C35.2111 36.912 35.2383 37.0538 35.2383 37.2227C35.2383 37.615 35.0623 37.7557 34.7115 37.6446C34.5993 37.8549 34.7162 37.9613 35.0587 37.9613C35.1745 38.2968 35.2903 38.4386 35.4072 38.3831C35.4627 38.3299 35.5206 38.1409 35.5808 37.8171C35.6387 37.4922 35.6966 37.2736 35.7545 37.1601L35.8407 37.2452L36.1879 37.1601C36.195 37.2027 36.2045 37.244 36.2139 37.2854C36.247 37.2854 36.2813 37.2889 36.3155 37.2901C36.6557 39.163 37.5026 40.861 38.7157 42.234L35.1851 45.7648C35.0398 45.6064 34.943 45.4185 34.989 45.2094C35.0635 44.8714 35.4072 44.6611 35.4521 44.309C35.4556 44.2818 35.5336 43.6425 35.5336 43.6425C35.1272 43.0848 34.9241 42.7528 34.9241 42.6417L34.9264 42.6405ZM32.9066 37.4177C32.9621 37.5288 32.9893 37.6399 32.9893 37.7509C32.9893 37.9187 32.9338 37.9884 32.8216 37.9613C32.8015 37.9565 32.779 37.9613 32.7578 37.9672C32.642 37.3504 32.5676 36.7194 32.5381 36.0766H33.2338C33.2232 36.2195 33.1984 36.333 33.157 36.4157C33.1003 36.5279 33.0295 36.6378 32.9468 36.7501C32.8629 36.8623 32.8216 36.9722 32.8216 37.0833C32.8216 37.1944 32.8499 37.3078 32.9066 37.4189V37.4177ZM32.5393 34.811C32.6916 31.4599 34.0347 28.4149 36.1561 26.0906L38.718 28.6535C38.6932 28.6807 38.672 28.7103 38.6484 28.7363C38.496 28.7717 38.3483 28.8272 38.2042 28.8981C38.0932 29.0329 37.9739 29.1888 37.8333 29.3885C37.4447 29.5563 37.1801 29.6946 37.0419 29.8068C36.9014 29.9191 36.6923 30.1412 36.4159 30.4733C36.0816 30.6422 35.8726 30.7391 35.7899 30.7675C35.706 30.7947 35.6092 30.8632 35.497 30.9743C35.6092 31.2543 35.6092 31.4068 35.497 31.4327C35.3847 31.4611 35.1072 31.5296 34.6619 31.6431C34.6063 31.6431 34.552 31.6714 34.4953 31.7246L34.2461 31.9775C34.1894 32.0897 34.161 32.1878 34.161 32.2693C34.161 32.3509 34.1327 32.4501 34.0772 32.5612C33.9094 32.6735 33.7712 32.8129 33.6614 32.9795C33.5681 33.204 33.5681 33.4545 33.6614 33.731L33.7665 34.5653C33.7571 34.5653 33.7417 34.5593 33.7311 34.5593C33.763 34.6397 33.7854 34.7248 33.8031 34.811H32.5381H32.5393ZM39.611 43.1274C40.8595 44.231 42.3809 45.031 44.057 45.4233C43.9353 45.467 43.8113 45.5072 43.6897 45.5426C43.4121 45.6277 43.2443 45.8097 43.19 46.0885C43.1345 46.4253 43.0093 46.6368 42.8132 46.7195C42.6183 46.8046 42.5498 46.9298 42.6053 47.0988C42.8829 47.3801 43.0778 47.7156 43.1888 48.1079C43.2999 48.5014 43.5763 48.7531 44.0239 48.8642L44.5236 49.0332C44.6677 49.0332 44.8342 49.097 45.0197 49.2151C45.1661 49.234 45.3126 49.2553 45.4555 49.2872C42.2285 49.0686 39.3004 47.7475 37.049 45.6891L39.611 43.1274ZM36.1561 24.3028L33.6248 21.7694C36.8282 18.7716 41.0816 16.8869 45.7662 16.7309V20.3148C42.0691 20.4684 38.7098 21.9525 36.1572 24.3028H36.1561ZM35.2619 25.1973C32.9113 27.7508 31.4278 31.1113 31.2742 34.811H27.6917C27.8488 30.1235 29.7328 25.8696 32.7294 22.6639L35.2619 25.1973ZM31.2742 36.0754C31.3002 36.704 31.3687 37.3208 31.4703 37.927C31.4266 37.8537 31.3793 37.7687 31.3321 37.68C31.1337 37.4118 30.9683 37.2724 30.8384 37.2724C30.6683 37.2724 30.5561 37.3433 30.5005 37.4815C30.445 37.621 30.3588 37.745 30.2466 37.8561C29.7966 38.135 29.4883 38.2732 29.3194 38.2732C29.0938 38.4977 28.926 38.8309 28.8138 39.2752C28.7583 39.3863 28.7701 39.4997 28.854 39.612C28.9378 39.7231 28.8977 39.8342 28.7288 39.944C28.841 40.1686 28.8693 40.3068 28.8138 40.3612C28.8693 40.4722 28.854 40.516 28.7701 40.4876C28.6862 40.4604 28.6154 40.4722 28.5599 40.5289C28.5079 40.5809 28.4701 40.6459 28.4417 40.7192C28.0059 39.2386 27.7448 37.6836 27.6905 36.0766H31.273L31.2742 36.0754ZM45.7638 59.2342C39.6795 59.0758 34.1599 56.6216 30.0352 52.7068L32.7283 50.0115C36.162 53.2374 40.7308 55.2651 45.7638 55.4222V59.2354V59.2342ZM45.7638 54.1567C41.1029 53.9996 36.8719 52.1338 33.6732 49.1631C33.9272 49.2825 34.1587 49.3451 34.3666 49.3451C34.5331 49.3451 34.754 49.286 35.0339 49.1702C35.3115 49.0532 35.5619 48.9374 35.7863 48.8181C36.1194 48.8181 36.3699 48.7626 36.5364 48.6491C36.7573 48.7058 36.9663 48.7058 37.1612 48.6491C37.3561 48.5936 37.4542 48.4553 37.4542 48.2332C37.4542 48.0666 37.3561 47.913 37.1577 47.7735C36.9593 47.6353 36.86 47.51 36.86 47.3978C36.86 47.3422 36.8033 47.2737 36.6911 47.1886C36.6002 47.1225 36.4195 46.9204 36.149 46.5884L36.1549 46.5836C38.7074 48.9327 42.0667 50.418 45.7638 50.5705V54.1555V54.1567ZM46.4371 44.8502V44.8265C46.0272 44.8265 45.7532 44.7805 45.6079 44.6907C45.5807 44.6198 45.5512 44.5489 45.5252 44.4721C45.5984 44.4142 45.7248 44.3291 45.915 44.2133C46.1477 44.0727 46.3202 44.0018 46.4371 44.0018V43.7832L47.0525 43.32C47.1659 43.2644 47.2379 43.2373 47.2675 43.2373C47.297 43.2373 47.4529 43.1829 47.7399 43.0706C47.7966 43.0706 48.0116 43.1675 48.3849 43.3625C48.7569 43.5575 48.9707 43.6544 49.0286 43.6544L49.1137 43.32C49.2235 43.32 49.3912 43.431 49.6133 43.6544C49.7243 43.6544 49.8637 43.5988 50.0326 43.4854C50.0869 43.3211 50.0869 43.1829 50.0326 43.0695C50.0869 43.0695 50.1685 43.0966 50.2818 43.1522C50.3362 43.1522 50.3775 43.1664 50.4047 43.1959C50.433 43.2231 50.4744 43.2373 50.5311 43.2373H50.6149C50.7248 43.2373 50.876 43.1675 51.0721 43.0293C51.267 42.8887 51.4193 42.793 51.5315 42.7362C51.5882 42.6807 51.6426 42.6807 51.6981 42.7362C51.7548 42.7918 51.7819 42.9052 51.7819 43.0706C51.7819 43.5161 51.5457 43.8505 51.0732 44.0727C50.6008 44.2948 50.1968 44.4602 49.8649 44.5725C49.8082 44.628 49.7373 44.7545 49.6546 44.9494C49.572 45.1444 49.4751 45.2413 49.3641 45.2413C49.1408 45.2413 48.7983 45.1869 48.3376 45.0747C48.2797 45.0203 48.1935 44.8525 48.0778 44.5737C47.9053 44.5737 47.7057 44.6009 47.4765 44.6576L46.7914 44.8254C46.6733 44.8644 46.554 44.8667 46.4359 44.8514L46.4371 44.8502ZM50.0527 42.0958C50.107 41.8181 50.2464 41.6397 50.4697 41.5534C50.6905 41.4707 50.9138 41.4282 51.1382 41.4282C51.1382 41.5971 50.9835 41.7638 50.6787 41.9292C50.3728 42.0958 50.1921 42.1797 50.1366 42.1797L50.0539 42.0958H50.0527ZM52.6371 40.0516C52.858 40.1898 52.9702 40.4013 52.9702 40.679C52.9702 40.9012 52.858 41.0122 52.6371 41.0122C52.4706 41.0122 52.3312 40.8185 52.2202 40.4285C51.8292 40.3186 51.6083 40.1378 51.5528 39.8873C51.4973 39.638 51.5245 39.4844 51.6367 39.4277C51.7477 39.3733 51.8587 39.332 51.9709 39.3036C52.0808 39.2741 52.1103 39.3993 52.0536 39.677C52.2202 39.7881 52.4162 39.9121 52.6371 40.0516ZM60.6786 26.0433C60.7341 26.0433 60.7885 26.0705 60.8464 26.1284C61.0696 26.1284 61.2645 26.1839 61.431 26.2962C61.6 26.4073 61.9354 26.8244 62.4398 27.5475C62.4953 27.5475 62.565 27.6303 62.6488 27.798C62.7315 27.9658 62.8307 28.0486 62.943 28.0486C63.041 28.0486 63.191 27.9989 63.3753 27.9127C63.393 27.8311 63.4095 27.7602 63.4261 27.6858C64.4242 29.8706 65.0171 32.2753 65.1022 34.811H61.5645C61.5681 34.7898 61.5763 34.7685 61.5787 34.7472C61.6307 34.427 61.4996 34.1091 61.3838 33.8173C61.2066 33.3659 61.157 33.0587 61.268 32.586C61.3519 32.2256 61.3673 31.9917 61.3117 31.8794C61.1428 31.8794 61.0306 31.9078 60.9751 31.9609C60.9196 32.0165 60.8487 32.1429 60.7649 32.3367C60.6798 32.5305 60.6113 32.6829 60.5558 32.7952V32.8424C60.5192 32.9192 60.4955 32.976 60.4955 32.9984C60.4955 33.0268 60.4648 33.0941 60.4105 33.2064C60.3526 33.4297 60.2959 33.6507 60.2404 33.8716C60.1908 34.0713 60.192 34.2958 60.2333 34.5393C60.2369 34.544 60.2369 34.5487 60.2404 34.5534C60.2463 34.6385 60.2534 34.7236 60.257 34.811H58.4592C58.5679 34.7011 58.6931 34.6125 58.8407 34.557H58.7817L59.2695 34.3112C59.1596 34.2568 59.1065 34.1741 59.1065 34.0654C59.1065 33.9012 59.1336 33.8055 59.188 33.7771C59.2411 33.7511 59.403 33.6814 59.6746 33.5727C59.7798 33.4628 59.9298 33.2016 60.1176 32.7928C60.3302 32.3272 60.7625 31.662 60.766 31.1373C60.766 31.0074 60.5959 30.8419 60.577 30.7025C60.5605 30.5926 60.616 30.4685 60.6208 30.348C60.6444 29.7596 60.8842 28.7469 60.1353 28.5614C60.0774 28.5614 60.0491 28.481 60.0491 28.3156C60.2215 28.1939 60.277 27.9824 60.2215 27.6799H59.7077C59.7077 27.6243 59.7479 27.5263 59.8341 27.3857C59.9203 27.2462 59.964 27.1222 59.964 27.0087C59.964 26.8397 59.879 26.7558 59.7077 26.7558C59.5364 26.7558 59.3923 26.7842 59.2789 26.8409C59.1632 26.8976 59.0769 26.926 59.0214 26.926C58.9659 26.926 58.9269 26.9189 58.8903 26.9083C58.8502 26.848 58.8041 26.7925 58.7616 26.7346C58.7545 26.4628 58.634 26.1898 58.3942 25.9169C58.158 25.6498 57.9347 25.4891 57.7257 25.4253C57.7162 25.4147 57.708 25.4041 57.6985 25.3934C57.7351 25.267 57.7351 25.15 57.6938 25.0389L58.4001 24.3335L59.4112 24.6963C59.4112 24.9751 59.4986 25.1689 59.6746 25.28C59.7313 25.3355 59.8494 25.4194 60.0254 25.5317C60.1825 25.6333 60.3148 25.7326 60.4259 25.833V25.8803C60.5369 25.9925 60.6219 26.0469 60.6786 26.0469V26.0433ZM57.2402 50.3081C57.1835 50.2538 57.1126 50.2254 57.03 50.2254C56.9473 50.2254 56.9047 50.1722 56.9047 50.0576C56.9047 49.943 56.9886 49.8367 57.1575 49.7232C57.3253 49.6133 57.467 49.4172 57.5792 49.1407C57.6902 48.9185 57.7481 48.7531 57.7481 48.6397C57.7481 48.5262 57.7044 48.4601 57.6205 48.4317C57.5355 48.4033 57.4363 48.3348 57.3241 48.2226C57.2107 48.167 57.0866 48.1127 56.9473 48.0571C56.8091 48.0004 56.6555 47.9177 56.4878 47.8043C56.3212 47.6944 56.2386 47.5561 56.2386 47.3883C56.2386 47.3328 56.2799 47.1945 56.3614 46.9724C56.3898 46.8979 56.4216 46.8223 56.4535 46.7479C56.515 46.6912 56.5776 46.638 56.6402 46.5825L58.569 48.5109C58.5714 48.733 58.7061 48.8618 58.96 48.9032L59.1726 49.1147C58.4982 49.7445 57.7776 50.3211 57.0181 50.8481C57.05 50.7702 57.0926 50.6957 57.1575 50.6272C57.1835 50.6 57.2201 50.5799 57.2567 50.561C57.2745 50.4523 57.2709 50.3684 57.2402 50.3081ZM56.0756 41.1363C55.9078 41.0831 55.7377 41.1103 55.5676 41.2167C55.342 41.271 55.1731 41.4353 55.0609 41.7094C55.0609 41.7661 55.0326 41.7921 54.9759 41.7921C54.866 41.7921 54.755 41.8217 54.644 41.876C54.475 41.9327 54.3369 41.9883 54.227 42.0438C54.0593 42.0438 53.9766 41.9883 53.9766 41.876C53.9766 41.7106 54.2258 41.5983 54.7278 41.5416C54.9487 41.2698 55.0857 41.1068 55.1389 41.0512C55.1897 40.9981 55.3196 40.9425 55.5287 40.887C55.7377 40.7783 55.9433 40.5738 56.1523 40.2737C56.3602 39.9736 56.4642 39.7975 56.4642 39.742H56.5421C56.5421 40.0149 56.6579 40.1508 56.8918 40.1508C57.0654 40.1508 57.2107 39.9582 57.3288 39.5754C57.6772 39.6888 57.9111 39.742 58.0281 39.742C58.3186 39.742 58.5242 39.6368 58.6387 39.4253H59.6829C59.6758 39.4513 59.6675 39.4773 59.6593 39.5033C59.651 39.5257 59.6427 39.5494 59.6345 39.5706C59.6356 39.5706 59.638 39.5706 59.6392 39.5706C59.0592 41.4317 58.0954 43.1262 56.8421 44.5607C56.8315 44.4756 56.8244 44.3917 56.8138 44.3066C56.7925 44.3314 56.5669 43.5445 56.5126 43.5445C56.4075 43.5445 56.2752 43.7394 56.1169 44.1282C55.9586 44.5181 55.8523 44.7686 55.7992 44.8774L54.9629 45.044C54.742 45.0995 54.494 45.129 54.214 45.129C54.1018 45.129 53.8656 45.0322 53.5053 44.8372C53.1427 44.6422 52.9064 44.5453 52.7954 44.5453C52.6289 44.4886 52.3926 44.4342 52.0867 44.3775C51.7796 44.3232 51.6284 44.2416 51.6284 44.1282C51.6284 43.9604 51.7394 43.8765 51.9615 43.8765C52.0737 43.8765 52.2946 43.9191 52.6289 44.0018C52.9631 44.0857 53.295 44.1707 53.6293 44.2535C53.9624 44.3373 54.2683 44.4212 54.5459 44.504C54.8235 44.5867 54.9901 44.628 55.0467 44.628L55.5476 44.4614C55.5476 44.3527 55.6031 44.2003 55.7165 44.0053C55.8287 43.8103 55.8854 43.6579 55.8854 43.5457C56.0023 43.3235 56.1051 43.0175 56.1949 42.6287C56.2811 42.24 56.326 41.9056 56.326 41.6279C56.326 41.3502 56.2397 41.1918 56.0708 41.1375L56.0756 41.1363ZM58.2891 36.0754H60.2558C60.218 36.9096 60.1058 37.7261 59.9274 38.5166C59.7585 38.1302 59.6167 37.8809 59.5057 37.7698C59.3935 37.6588 59.1667 37.4354 58.8277 37.1022C58.771 36.8245 58.7285 36.6307 58.7001 36.5185C58.6872 36.47 58.6458 36.4015 58.5844 36.32C58.4722 36.2479 58.3694 36.1711 58.2903 36.0766L58.2891 36.0754ZM59.1017 46.2882C58.934 46.2882 58.8525 46.3308 58.8525 46.4135C58.8525 46.4962 58.8254 46.6675 58.7734 46.9298L57.5331 45.6891C59.1998 43.8789 60.427 41.6633 61.0554 39.2079C61.0755 39.1913 61.0944 39.1748 61.1157 39.1547C61.3992 39.2646 61.5811 39.2646 61.6661 39.1547C61.7476 39.046 61.7913 38.9633 61.7913 38.9077C61.7913 38.7423 61.6507 38.5214 61.3755 38.2472H61.2704C61.4039 37.5394 61.4901 36.8151 61.5196 36.0754H65.1022C64.9463 40.7617 63.0623 45.0168 60.0656 48.2214L59.9109 48.0666C59.9109 48.0559 59.9097 48.0441 59.9097 48.0335C59.8589 47.6506 59.7998 47.2725 59.7278 46.9086C59.6439 46.4938 59.436 46.287 59.1017 46.287V46.2882ZM58.2194 28.1951C58.2194 28.1951 58.2253 28.2104 58.2253 28.214C58.2253 28.3274 58.197 28.4657 58.1403 28.6323C58.0836 28.8001 58.0292 28.9383 57.9749 29.0494C58.0292 29.1605 58.2501 29.3554 58.6411 29.6331C59.0321 29.9108 59.2813 30.107 59.3923 30.2168C59.5034 30.3858 59.6286 30.7072 59.7668 31.1822C59.9061 31.6584 59.9746 31.9538 59.9746 32.0661C59.9179 32.2918 59.8353 32.4856 59.7254 32.6557C59.5022 32.9925 59.2246 33.1603 58.8915 33.1603L58.8076 33.0752C58.8076 32.9653 58.862 32.8011 58.9742 32.5813C59.0852 32.3627 59.1431 32.1984 59.1431 32.0886C59.364 31.9243 59.4774 31.7589 59.4774 31.5934C59.364 31.5403 59.2825 31.4989 59.2258 31.4706C59.1691 31.4434 59.0309 31.3193 58.81 31.1007C58.81 30.9365 58.6423 30.8537 58.3104 30.8537C58.1426 30.8537 58.0021 30.8963 57.8922 30.9802C57.7824 31.0617 57.643 31.1598 57.4753 31.2709L57.3099 30.9365C57.3642 30.8218 57.3926 30.7049 57.3926 30.5843L56.7264 29.4677C56.5587 29.3578 56.2527 29.2585 55.8074 29.177C55.5381 29.1274 55.3727 29.1487 55.1389 29.2006C54.8767 29.2574 54.755 29.2006 54.4904 29.164C54.227 29.1297 54.0427 29.216 53.8242 29.3743C53.6069 29.5303 53.4439 29.7087 53.2714 29.9167C53.1864 30.0195 53.3069 30.153 53.0564 30.1022C53.0316 30.0975 52.9348 29.9852 52.8509 29.8824L56.6378 26.0953C56.6721 26.1497 56.7016 26.191 56.7252 26.2158C56.7795 26.2714 56.8906 26.3954 57.0583 26.5916C57.1776 26.731 57.2969 26.8799 57.4162 27.0335C57.702 27.4081 57.9725 27.7945 58.2206 28.1974L58.2194 28.1951ZM49.1278 53.2232C49.4479 53.4785 49.8046 53.6604 50.1944 53.775C49.1668 53.9877 48.1096 54.1201 47.0289 54.1567V50.5716H47.03C47.2261 50.847 47.4045 51.0396 47.5604 51.1376C47.6762 51.1944 47.9207 51.2357 48.2939 51.2617C48.6683 51.2901 48.8562 51.3598 48.8562 51.4697C48.8562 51.5796 48.8125 51.706 48.7309 51.8454C48.6471 51.9837 48.6057 52.1101 48.6057 52.2224C48.6057 52.6123 48.7794 52.9455 49.1278 53.2232ZM47.0289 59.2342V55.4211C48.451 55.3773 49.8342 55.1776 51.1677 54.8503C51.1795 54.8763 51.1925 54.9047 51.1996 54.9283C51.2103 54.9626 51.2138 54.9992 51.2173 55.0347C51.665 55.3632 51.9497 55.629 52.0489 55.8275C52.1599 56.0497 52.4647 56.1619 52.9667 56.1619C53.2443 56.1619 53.4238 56.1076 53.5088 55.9941C53.5915 55.8843 53.6884 55.772 53.8006 55.6597C53.9116 55.5487 54.051 55.466 54.2176 55.4092C54.3841 55.3549 54.4951 55.2722 54.5506 55.1599C54.8294 55.0488 55.0243 54.8822 55.1365 54.6613C55.3574 54.4947 55.5228 54.2713 55.635 53.9948C55.746 53.9948 55.8559 53.9251 55.9692 53.7869C56.0803 53.6486 56.1901 53.3579 56.3035 52.9125C56.352 52.8853 56.3992 52.8534 56.4476 52.8274C56.4524 52.7848 56.4618 52.7423 56.4701 52.6998C57.7682 51.9388 58.973 51.036 60.0644 50.0115L62.7587 52.7057C58.6328 56.6216 53.1131 59.0747 47.0289 59.2342ZM63.6517 51.8124L60.9586 49.1159C64.1832 45.6809 66.2089 41.1115 66.366 36.0754H70.1777C70.0171 42.162 67.5661 47.6837 63.6517 51.8124ZM70.1777 34.811H66.366C66.2361 30.6458 64.8258 26.8031 62.5189 23.6541C62.4788 23.5371 62.4232 23.4225 62.3287 23.3078C62.2673 23.2334 62.1905 23.172 62.1126 23.1129C61.8019 22.717 61.4736 22.3354 61.1334 21.9655C61.0861 21.8733 61.0507 21.7847 61.0318 21.6973L63.6517 19.0741C67.5661 23.2015 70.0171 28.7233 70.1777 34.811ZM47.0289 11.6534C53.1131 11.8129 58.6328 14.266 62.7587 18.1819L60.4377 20.5038C60.3822 20.3869 60.3396 20.271 60.3077 20.1517C60.1247 19.9816 60.0054 19.8894 59.9617 19.8894C59.7384 19.7807 59.6108 19.6022 59.5837 19.3553C59.5565 19.1107 59.4868 18.9323 59.3758 18.8224C59.0391 18.7137 58.7592 18.4679 58.536 18.0862C58.3127 17.7045 58.0895 17.5119 57.8686 17.5119C57.7564 17.5675 57.5733 17.5474 57.3229 17.4493C57.0713 17.3501 56.8906 17.3016 56.7772 17.3016C56.5539 17.3016 56.3602 17.33 56.1913 17.3855C56.0259 17.4399 55.8062 17.4954 55.5369 17.5498C55.5062 17.5757 55.4802 17.6053 55.4519 17.636C52.9879 16.3776 50.2311 15.6166 47.3123 15.4831C47.5332 15.138 47.5616 14.91 47.395 14.7977C47.349 14.7516 47.2249 14.8237 47.03 15.0022V11.6558L47.0289 11.6534ZM47.0289 16.7309C49.8129 16.8242 52.441 17.532 54.7904 18.716C54.7869 18.7337 54.781 18.7527 54.7786 18.7704C54.879 18.8732 54.9877 18.9925 55.1093 19.1367C55.2475 19.3021 55.3456 19.412 55.4023 19.4664C55.5145 19.8516 55.5972 20.0985 55.6527 20.2084C55.7082 20.3183 55.7909 20.4542 55.9031 20.6196C55.8476 20.8406 55.8889 21.0734 56.0283 21.3203C56.1665 21.5673 56.3201 21.8001 56.4878 22.0222C56.5433 22.0222 56.6543 22.008 56.8221 21.9809C56.9886 21.9537 57.128 21.9383 57.239 21.9383C57.3501 21.9383 57.4764 22.0234 57.6146 22.1888C57.7528 22.3566 57.8509 22.5232 57.9076 22.6899C57.9336 22.7442 57.9572 22.8364 57.9784 22.9652L56.9555 23.9885C56.9555 23.9885 56.9544 23.9849 56.9532 23.9837C56.7335 23.2003 56.5681 22.7383 56.4594 22.5977C56.3484 22.4594 56.1287 22.3885 55.8003 22.3885C55.7448 22.333 55.5511 22.0919 55.2204 21.6689C54.8873 21.2459 54.6948 21.0344 54.6392 21.0344C54.5282 21.0344 54.4455 21.0627 54.3888 21.1183C54.4455 21.2317 54.4999 21.331 54.5554 21.4149C54.6121 21.4999 54.7231 21.6843 54.8896 21.9655C54.8896 22.0778 54.8353 22.1345 54.7231 22.1345C54.7786 22.359 54.918 22.4996 55.1401 22.5563L55.0574 22.7229L55.3007 23.2121C52.9596 21.5011 50.1129 20.4459 47.03 20.3183V16.7344L47.0289 16.7309ZM47.0289 21.5803C50.3775 21.7315 53.4226 23.0751 55.7448 25.1985L53.1828 27.7614C51.5209 26.2903 49.3818 25.3497 47.0289 25.2067V21.5815V21.5803ZM47.0289 26.4817C48.9034 26.6129 50.6149 27.323 51.9993 28.4338C51.9331 28.4586 51.867 28.4881 51.8257 28.5271C51.7701 28.5803 51.7146 28.6193 51.6591 28.6453C51.6024 28.6713 51.5764 28.7374 51.5764 28.8426C51.5764 28.982 51.7607 29.0329 51.8906 29.0541L50.9067 30.0384V30.0278C50.7401 30.1235 50.6149 30.2109 50.5358 30.2901C50.3078 30.4047 50.1803 30.504 50.1531 30.5879C50.1318 30.647 50.1059 30.745 50.0716 30.875L49.742 31.2035C49.7007 31.2165 49.6546 31.2224 49.6003 31.2224C49.4869 31.2224 49.3156 31.1102 49.0888 30.8833C48.8621 30.6576 48.6932 30.5442 48.5798 30.5442C48.4085 30.5442 48.2809 30.5879 48.1959 30.673C48.1108 30.758 48.0116 30.771 47.897 30.7143C47.7836 30.6009 47.9112 30.4744 48.2797 30.3326C48.6483 30.192 48.8916 30.0916 49.005 30.0349C49.4586 29.6946 49.6865 29.2479 49.6865 28.6949C49.6865 28.4101 49.572 28.266 49.344 28.266L49.09 28.507C48.8632 28.6146 48.6636 28.7481 48.4935 28.9088C48.3234 29.0695 48.1817 29.2042 48.0683 29.3153C47.9549 29.2574 47.7836 29.229 47.5569 29.229H47.0572C47.0478 29.2373 47.0383 29.2455 47.03 29.2538V26.4793L47.0289 26.4817ZM46.2894 32.2197C46.3331 32.3036 46.3816 32.3485 46.4406 32.3485C46.6025 32.3485 46.7371 32.3922 46.8458 32.4785C46.945 32.5565 47.0879 32.5718 47.2757 32.534C47.2923 32.6002 47.323 32.6534 47.369 32.69C47.4187 32.8046 47.525 32.8649 47.6915 32.8649C47.734 32.9039 47.7624 32.9381 47.7931 32.9748C47.812 33.0043 47.8332 33.035 47.8439 33.0634C47.8746 33.1485 47.9195 33.2477 47.9785 33.3612C47.9927 33.3683 48.0022 33.3683 48.0152 33.373C48.0281 33.3978 48.0329 33.4167 48.047 33.4415C48.1663 33.4982 48.2549 33.5124 48.314 33.4841C48.3636 33.4616 48.438 33.4746 48.5254 33.5065C48.5278 33.5668 48.5313 33.6282 48.542 33.6932H48.5928C48.5998 33.7582 48.6105 33.8256 48.6258 33.8964C48.6554 34.0347 48.6707 34.1576 48.6707 34.2675V34.4329C48.6707 34.4884 48.6412 34.5156 48.5833 34.5156C48.4049 34.6799 48.314 34.8453 48.314 35.0107C48.314 35.1218 48.3872 35.162 48.5361 35.1336C48.6849 35.1076 48.79 35.149 48.8491 35.2577C48.9684 35.3664 49.0274 35.5318 49.0274 35.7528V36.4949C49.0274 36.6059 49.07 36.6886 49.1538 36.743C49.2365 36.7974 49.279 36.8517 49.279 36.9061C49.279 37.0715 49.2507 37.2783 49.194 37.5276C49.1385 37.7746 49.0546 37.953 48.9412 38.0629C48.8833 38.1172 48.7392 38.1172 48.5124 38.0629C48.2821 38.0073 48.0825 37.9802 47.91 37.9802C47.7943 37.9802 47.6797 38.1456 47.5663 38.4753C47.4505 38.7541 47.3643 39.007 47.3076 39.228C47.2497 39.4501 47.1352 39.5624 46.9639 39.5624C46.8481 39.5624 46.7336 39.5766 46.6202 39.6037C46.5977 39.6085 46.5777 39.6085 46.5564 39.6108L46.2741 40.0622L46.1855 40.1827C45.2075 40.1201 44.324 39.7136 43.653 39.0814L44.0972 38.6383C44.3783 38.6029 44.6689 38.532 44.8992 38.4481C44.95 38.4292 44.9972 38.4103 45.0433 38.3914C45.491 38.1952 45.4496 37.836 45.6729 37.4461C45.8193 37.1908 46.2351 36.9061 45.8997 36.6177C46.2764 35.9584 44.5377 35.9513 44.2318 36.0978C43.8727 36.2703 44.1031 36.6532 43.9117 36.9415C43.8113 37.0916 43.653 37.0963 43.516 37.1979C43.34 37.3303 42.9703 37.7474 42.8794 38.0664L42.8711 38.0747C42.7601 37.8738 42.6656 37.6611 42.5888 37.4413C42.6101 37.4437 42.6325 37.4461 42.6538 37.4579C42.6219 37.3905 42.6101 37.3397 42.6325 37.3173H42.7164V37.4012C42.9372 37.4579 43.0778 37.4579 43.1333 37.4012C43.1888 37.2357 43.2302 37.0809 43.2585 36.9415C43.2845 36.8044 43.4381 36.476 43.718 35.9596C43.6129 35.904 43.5467 35.8201 43.5196 35.7079C43.4936 35.5956 43.4286 35.5661 43.3247 35.6216C43.2195 35.6772 43.1664 35.7611 43.1664 35.8733C43.1664 35.9856 43.1132 36.0978 43.0105 36.2089C42.9018 36.3212 42.792 36.3755 42.6809 36.3755C42.6809 36.2089 42.5971 36.125 42.4305 36.125C42.3195 36.125 42.2085 36.1817 42.0962 36.2916C41.984 36.2916 41.7206 36.32 41.3037 36.3755C40.8855 36.431 40.6221 36.431 40.5123 36.3755C40.4001 36.2656 40.5406 36.1534 40.9304 36.0411C40.8749 35.7055 41.0131 35.3699 41.3474 35.032C41.5694 35.1443 41.736 35.201 41.847 35.201L42.0136 35.032H42.0974C42.264 35.032 42.3608 35.1738 42.3892 35.4538C42.4175 35.7351 42.486 35.8757 42.5982 35.8757C42.7105 35.8757 42.8203 35.8201 42.9313 35.7067V35.2849C43.04 34.8358 43.1227 34.5274 43.1794 34.3573V34.1056C43.2503 33.9354 43.34 33.8031 43.4416 33.6944H43.5361C43.6495 33.6046 43.7771 33.5408 43.9223 33.516C44.0334 33.2879 44.0901 33.1154 44.0901 33.002C44.2566 32.9452 44.5496 32.8306 44.9677 32.6581C45.387 32.4879 45.5961 32.3154 45.5961 32.1453C45.5961 32.1311 45.5949 32.1157 45.5937 32.1016C45.778 32.0626 45.967 32.0354 46.1595 32.0212C46.1961 32.1228 46.2386 32.1914 46.2871 32.2209L46.2894 32.2197ZM45.7638 11.6534V15.4665C40.7308 15.6249 36.162 17.6502 32.7283 20.8772L30.0352 18.1819C34.1599 14.266 39.6795 11.8129 45.7638 11.6534ZM29.1398 19.0752L31.8353 21.7705C28.6106 25.2067 26.5837 29.7761 26.4266 34.8122H22.615C22.7756 28.7256 25.2266 23.2027 29.1398 19.0752Z" fill="white"/>
<path d="M49.2058 30.4402C49.2058 30.4402 49.2082 30.4414 49.2082 30.4426C49.2105 30.4449 49.2141 30.4461 49.2164 30.4485C49.22 30.4508 49.2247 30.4508 49.2283 30.4485C49.2306 30.4485 49.233 30.4461 49.2365 30.4449C49.2483 30.4378 49.2601 30.4307 49.272 30.4225C49.2968 30.4036 49.3204 30.3858 49.344 30.3658C49.3535 30.3575 49.3641 30.3492 49.3724 30.3398C49.3759 30.3362 49.3794 30.3327 49.3818 30.3279C49.3865 30.3197 49.3936 30.3173 49.4031 30.3197C49.4172 30.322 49.4326 30.3232 49.4468 30.322C49.4491 30.322 49.4515 30.322 49.4539 30.3209C49.4562 30.3209 49.4574 30.3173 49.4539 30.3161C49.4515 30.3149 49.4503 30.3138 49.448 30.3126C49.4409 30.3102 49.4338 30.3079 49.4255 30.3079C49.4149 30.3067 49.4031 30.3055 49.3924 30.3067C49.3913 30.3067 49.3889 30.3067 49.3877 30.3067C49.3641 30.3126 49.3405 30.3197 49.318 30.3279C49.3109 30.3303 49.3039 30.3339 49.2968 30.3374C49.2909 30.3398 49.285 30.3433 49.2802 30.348C49.2802 30.348 49.279 30.348 49.2779 30.348C49.2731 30.348 49.2696 30.3469 49.2661 30.3445C49.2613 30.3421 49.2566 30.3386 49.2531 30.335C49.2448 30.3279 49.2377 30.3197 49.2306 30.3102C49.2342 30.3067 49.2342 30.3031 49.2353 30.2984C49.2401 30.2724 49.246 30.2464 49.2531 30.2204C49.2613 30.1921 49.2696 30.1637 49.2814 30.1365C49.292 30.1129 49.3039 30.0893 49.3192 30.0692C49.3251 30.0621 49.331 30.055 49.3369 30.0479C49.3369 30.0479 49.3369 30.0479 49.3381 30.0467C49.3381 30.0479 49.3381 30.0491 49.3381 30.0503C49.3287 30.0692 49.3204 30.0893 49.3121 30.1093C49.3003 30.1389 49.2909 30.1696 49.285 30.2015C49.2814 30.2181 49.279 30.2358 49.2767 30.2535C49.2755 30.2689 49.2743 30.283 49.2755 30.2984C49.2755 30.3008 49.2755 30.3031 49.2755 30.3055C49.2755 30.309 49.279 30.3102 49.2826 30.3102C49.285 30.3102 49.2873 30.3102 49.2897 30.3102C49.3192 30.302 49.3499 30.2949 49.3794 30.2854C49.3854 30.283 49.3913 30.2807 49.3972 30.2783C49.4031 30.276 49.4102 30.2736 49.4161 30.2748C49.4184 30.2748 49.422 30.276 49.4243 30.2783C49.4338 30.2854 49.4432 30.2901 49.4539 30.2925C49.4539 30.2925 49.455 30.2925 49.4562 30.2925C49.4527 30.2795 49.4456 30.27 49.4314 30.2665C49.4314 30.2665 49.4291 30.2665 49.4279 30.2665C49.4161 30.2665 49.4043 30.2677 49.3913 30.2689C49.3865 30.2689 49.383 30.2689 49.3783 30.2689C49.3688 30.2689 49.3594 30.2689 49.3511 30.2712C49.3487 30.2712 49.3464 30.2724 49.344 30.2736C49.3428 30.2736 49.3416 30.276 49.3405 30.276C49.3393 30.2771 49.3381 30.2783 49.3357 30.276C49.3357 30.276 49.3357 30.276 49.3346 30.276C49.3263 30.2689 49.318 30.2618 49.3086 30.2547C49.3074 30.2535 49.3062 30.2523 49.3074 30.25C49.3168 30.2086 49.3275 30.1684 49.3428 30.1294C49.3523 30.1034 49.3641 30.0786 49.3783 30.055C49.3806 30.0514 49.383 30.0467 49.3865 30.0432V30.0455C49.3771 30.0774 49.3676 30.1093 49.3605 30.1424C49.3558 30.1637 49.3523 30.1838 49.3499 30.2051C49.3487 30.2169 49.3476 30.2287 49.3476 30.2393C49.3476 30.2405 49.3476 30.2417 49.3476 30.2429C49.3476 30.2452 49.3487 30.2464 49.3511 30.2464C49.3511 30.2464 49.3535 30.2464 49.3546 30.2464C49.3724 30.2464 49.3889 30.2476 49.4066 30.2464C49.4184 30.2464 49.4291 30.2452 49.4409 30.2429C49.4444 30.2429 49.4468 30.2429 49.4491 30.2452C49.4515 30.2476 49.4539 30.2488 49.455 30.2511C49.4574 30.2535 49.4586 30.2559 49.4609 30.2582C49.4645 30.2618 49.468 30.2653 49.4716 30.27C49.4739 30.2724 49.4751 30.2724 49.4775 30.27C49.4787 30.2677 49.4798 30.2665 49.481 30.2641C49.4846 30.2582 49.4905 30.2547 49.4964 30.2523C49.4976 30.2523 49.4999 30.2523 49.5011 30.2523C49.5011 30.2535 49.5011 30.2547 49.4999 30.2559C49.4976 30.2594 49.4952 30.263 49.4928 30.2677C49.4917 30.27 49.4917 30.2724 49.4917 30.2748C49.4917 30.2748 49.4917 30.2748 49.4917 30.276C49.4917 30.2771 49.4917 30.2783 49.494 30.2795C49.4952 30.2795 49.4964 30.2795 49.4976 30.2771C49.4976 30.2771 49.4987 30.2748 49.4999 30.2736C49.4999 30.2724 49.5011 30.27 49.5023 30.2689C49.5023 30.2689 49.5035 30.2665 49.5047 30.2665C49.5047 30.2665 49.5058 30.2677 49.507 30.2689C49.507 30.27 49.507 30.2712 49.5094 30.2724C49.5094 30.2736 49.5106 30.2748 49.5117 30.276C49.5141 30.2795 49.5176 30.2795 49.52 30.276C49.52 30.2748 49.5212 30.2736 49.5224 30.2724C49.5224 30.2724 49.5224 30.27 49.5235 30.2689C49.5235 30.2689 49.5236 30.2665 49.5259 30.2665C49.5271 30.2665 49.5283 30.2677 49.5283 30.2689C49.5283 30.27 49.5295 30.2724 49.5306 30.2736C49.5306 30.2736 49.5306 30.276 49.533 30.2771C49.533 30.2771 49.5342 30.2795 49.5365 30.2783C49.5377 30.2783 49.5389 30.2771 49.5389 30.276C49.5389 30.2736 49.5389 30.27 49.5389 30.2677C49.5365 30.263 49.5342 30.2594 49.5318 30.2559C49.5318 30.2559 49.5306 30.2535 49.5306 30.2523C49.5318 30.2523 49.5342 30.2523 49.5354 30.2523C49.5424 30.2547 49.5472 30.2582 49.5507 30.2641C49.5519 30.2665 49.5531 30.2689 49.5543 30.27C49.5566 30.2724 49.5578 30.2724 49.5602 30.27C49.5649 30.2665 49.5684 30.2618 49.5732 30.257C49.5755 30.2547 49.5767 30.2523 49.5791 30.25C49.5802 30.2476 49.5826 30.2464 49.585 30.2452C49.5873 30.2441 49.5897 30.2429 49.5921 30.244C49.6039 30.2464 49.6145 30.2476 49.6263 30.2476C49.644 30.2476 49.6606 30.2476 49.6783 30.2476C49.6842 30.2476 49.6854 30.2464 49.6854 30.2405C49.6854 30.2275 49.6854 30.2145 49.683 30.2015C49.6783 30.1613 49.6688 30.1212 49.6582 30.0822C49.6547 30.0704 49.6511 30.0574 49.6476 30.0455C49.6476 30.0455 49.6476 30.0432 49.6476 30.042C49.6476 30.042 49.6488 30.0432 49.6499 30.0444C49.6606 30.0597 49.6688 30.0763 49.6771 30.094C49.6913 30.1259 49.7031 30.1578 49.7125 30.1909C49.7184 30.211 49.7232 30.2299 49.7267 30.25C49.7267 30.2523 49.7267 30.2535 49.7255 30.2547C49.7196 30.2594 49.7149 30.2641 49.709 30.2689C49.7066 30.2712 49.7031 30.2736 49.7007 30.276C49.7007 30.276 49.6995 30.2771 49.6984 30.2771C49.6972 30.2771 49.696 30.2771 49.6948 30.2771C49.6925 30.2736 49.6889 30.2736 49.6854 30.2724C49.6795 30.2712 49.6736 30.27 49.6677 30.27C49.6606 30.27 49.6523 30.27 49.6452 30.2689C49.6334 30.2689 49.6204 30.2677 49.6086 30.2665C49.6062 30.2665 49.6039 30.2665 49.6015 30.2665C49.5944 30.2689 49.5897 30.2736 49.585 30.2795C49.5826 30.283 49.5802 30.2878 49.5791 30.2925H49.5814C49.5921 30.289 49.6015 30.2842 49.611 30.2783C49.6157 30.2748 49.6204 30.2736 49.6251 30.2748C49.6299 30.2748 49.6358 30.2771 49.6405 30.2783C49.6476 30.2807 49.6547 30.2842 49.6617 30.2854C49.6889 30.2937 49.7173 30.3008 49.7456 30.309C49.748 30.309 49.7503 30.309 49.7527 30.309C49.7562 30.309 49.7586 30.3067 49.7598 30.3043C49.7598 30.3019 49.7598 30.2984 49.7598 30.296C49.7598 30.289 49.7598 30.2819 49.7598 30.276C49.7598 30.257 49.7574 30.2393 49.7539 30.2204C49.7444 30.1637 49.7255 30.1093 49.7007 30.0562C49.6995 30.0526 49.6972 30.0491 49.696 30.0455C49.696 30.0455 49.6972 30.0467 49.6984 30.0479C49.7137 30.0644 49.7267 30.0833 49.7373 30.1046C49.7503 30.1294 49.761 30.1566 49.7704 30.1838C49.7799 30.2133 49.7881 30.2441 49.794 30.2736C49.7964 30.283 49.7976 30.2925 49.7999 30.302C49.7999 30.3055 49.8011 30.3079 49.8035 30.3102C49.8035 30.3102 49.8035 30.3114 49.8023 30.3126C49.7964 30.3209 49.7893 30.3291 49.7811 30.3362C49.7775 30.3398 49.7728 30.3433 49.7681 30.3457C49.7645 30.348 49.7598 30.3492 49.7562 30.3492H49.7539C49.7503 30.3457 49.7456 30.3421 49.7409 30.3398C49.7303 30.3339 49.7196 30.3303 49.709 30.3268C49.6889 30.3197 49.6677 30.3138 49.6464 30.3079H49.644C49.6263 30.3079 49.6098 30.3079 49.5921 30.3126C49.5885 30.3126 49.585 30.3149 49.5814 30.3161C49.5802 30.3161 49.5779 30.3173 49.5791 30.3197C49.5791 30.322 49.5814 30.322 49.5826 30.322C49.5862 30.322 49.5909 30.3232 49.5944 30.3232C49.6051 30.3232 49.6157 30.3232 49.6263 30.322C49.6287 30.322 49.6322 30.322 49.6346 30.3209C49.6417 30.3209 49.6476 30.3232 49.6523 30.3291C49.657 30.3362 49.6641 30.3433 49.67 30.3492C49.6842 30.3634 49.6995 30.3764 49.7161 30.3882C49.7338 30.4024 49.7527 30.4166 49.7716 30.4307C49.7799 30.4378 49.7905 30.4426 49.7999 30.4485C49.8023 30.4485 49.8035 30.4508 49.8059 30.4508C49.8106 30.452 49.8141 30.452 49.8188 30.4508C49.8224 30.4485 49.8259 30.4461 49.8283 30.4437V30.4662C49.8283 30.4662 49.8283 30.4686 49.8283 30.4709C49.8283 30.491 49.8259 30.5123 49.8236 30.5324C49.8177 30.5796 49.8082 30.6269 49.7917 30.6718C49.7775 30.7108 49.7598 30.7462 49.7373 30.7817C49.7373 30.7829 49.7362 30.7841 49.735 30.7852V30.7829C49.7444 30.7592 49.7527 30.7344 49.7598 30.7096C49.7692 30.6777 49.7763 30.6458 49.7811 30.6127C49.7834 30.5962 49.7858 30.5796 49.7881 30.5631C49.7905 30.5442 49.7917 30.5241 49.7929 30.5052C49.7929 30.491 49.7881 30.4792 49.7775 30.4686C49.7763 30.4686 49.7751 30.4662 49.774 30.465C49.7622 30.4567 49.7515 30.4485 49.7409 30.4402C49.7149 30.4201 49.6901 30.4 49.6641 30.3799C49.6582 30.3752 49.6535 30.3705 49.6476 30.3658C49.6393 30.3575 49.6287 30.3516 49.6169 30.3492C49.6121 30.3492 49.6074 30.3469 49.6027 30.3469C49.6003 30.3469 49.5991 30.3469 49.5968 30.3469C49.5921 30.3469 49.5909 30.3492 49.5932 30.3528C49.5944 30.3551 49.5956 30.3563 49.598 30.3587C49.6027 30.3622 49.6062 30.3669 49.611 30.3705C49.618 30.3764 49.6263 30.3811 49.6346 30.387C49.6358 30.387 49.6369 30.3882 49.6393 30.3882C49.6405 30.3882 49.6429 30.3882 49.644 30.3882C49.6511 30.3894 49.6547 30.3941 49.6547 30.4012C49.6547 30.4048 49.6547 30.4095 49.6547 30.413C49.6547 30.4178 49.6547 30.4225 49.6547 30.4272C49.6547 30.4591 49.6547 30.4898 49.6547 30.5217C49.6547 30.5371 49.6535 30.5525 49.6523 30.5678C49.6499 30.5974 49.6476 30.6257 49.6429 30.6553C49.6369 30.6895 49.6299 30.7226 49.6192 30.7557C49.6098 30.7852 49.598 30.8136 49.5814 30.8396C49.5767 30.8479 49.5708 30.855 49.5661 30.8632C49.5661 30.8632 49.5661 30.8644 49.5637 30.8656C49.5637 30.8656 49.5637 30.8644 49.5637 30.8632C49.5791 30.8254 49.5909 30.7876 49.598 30.7474C49.6027 30.725 49.6062 30.7025 49.6074 30.6801C49.6086 30.6635 49.611 30.6458 49.6121 30.6281C49.6145 30.5879 49.6145 30.5477 49.6145 30.5064C49.6145 30.4957 49.6133 30.4863 49.6121 30.4757C49.6121 30.4615 49.6098 30.4461 49.6121 30.4319C49.6121 30.4296 49.6121 30.426 49.6133 30.4237C49.6133 30.4213 49.6157 30.4189 49.6169 30.4166C49.6074 30.4036 49.598 30.3906 49.5862 30.3799C49.5826 30.3764 49.5779 30.3728 49.5732 30.3681C49.572 30.3669 49.5696 30.3658 49.5684 30.3658C49.5661 30.3658 49.5661 30.3658 49.5661 30.3681V30.3705C49.5661 30.3717 49.5661 30.3728 49.5684 30.374C49.5743 30.3823 49.5755 30.3918 49.5767 30.4024C49.5767 30.4154 49.5767 30.4272 49.5743 30.4402C49.5684 30.478 49.5578 30.5146 49.5436 30.5501C49.5413 30.5572 49.5377 30.5631 49.5342 30.5702C49.5342 30.5725 49.5318 30.5737 49.5306 30.5761C49.5306 30.5761 49.5295 30.5773 49.5283 30.5785C49.5271 30.5785 49.5247 30.5785 49.5247 30.5785C49.5247 30.5773 49.5247 30.5749 49.5247 30.5737C49.5247 30.5737 49.5247 30.5714 49.5247 30.5702C49.5236 30.5702 49.5224 30.5725 49.5212 30.5725C49.5212 30.5725 49.5188 30.5714 49.5176 30.5702C49.5165 30.5702 49.5176 30.5725 49.5165 30.5737C49.5165 30.5749 49.5165 30.5761 49.5165 30.5773C49.5165 30.5796 49.5141 30.5796 49.5129 30.5773C49.5117 30.5773 49.5106 30.5749 49.5094 30.5737C49.507 30.5702 49.5047 30.5666 49.5035 30.5619C49.4964 30.5477 49.4917 30.5324 49.4869 30.517C49.4798 30.4934 49.4728 30.4686 49.4692 30.4437C49.4669 30.4307 49.4657 30.4166 49.4657 30.4036C49.4657 30.3977 49.4657 30.3918 49.468 30.3858C49.468 30.3823 49.4704 30.3788 49.4728 30.3752C49.4739 30.3728 49.4751 30.3705 49.4763 30.3681C49.4763 30.3681 49.4763 30.3669 49.4763 30.3658C49.4763 30.3658 49.4763 30.3646 49.4751 30.3646H49.4728C49.4704 30.3658 49.4669 30.3681 49.4645 30.3705C49.4586 30.3752 49.4527 30.3811 49.4468 30.387C49.4397 30.3953 49.4326 30.4048 49.4255 30.4142C49.4255 30.4142 49.4255 30.4154 49.4243 30.4166C49.4279 30.4201 49.4279 30.4248 49.4291 30.4284C49.4291 30.4319 49.4291 30.4367 49.4291 30.4402C49.4291 30.4544 49.4291 30.4674 49.4279 30.4816C49.4267 30.5016 49.4255 30.5206 49.4255 30.5406C49.4255 30.5572 49.4255 30.5737 49.4255 30.5903C49.4255 30.608 49.4267 30.6269 49.4279 30.6446C49.4302 30.6742 49.4338 30.7025 49.4385 30.7321C49.4456 30.7746 49.4562 30.8148 49.4728 30.855C49.4739 30.8573 49.4751 30.8609 49.4763 30.8644C49.4763 30.8632 49.4739 30.862 49.4728 30.8597C49.4574 30.8384 49.4444 30.8148 49.435 30.79C49.4231 30.7628 49.4149 30.7344 49.4078 30.7049C49.4019 30.6801 49.3972 30.6553 49.3948 30.6293C49.3924 30.6104 49.3901 30.5915 49.3889 30.5725C49.3854 30.5312 49.3854 30.4898 49.3854 30.4485C49.3854 30.4343 49.3854 30.4189 49.3854 30.4048C49.3854 30.4024 49.3854 30.3988 49.3854 30.3965C49.3854 30.3906 49.3901 30.387 49.3948 30.3858C49.3972 30.3858 49.3995 30.3858 49.4007 30.3847C49.4019 30.3847 49.4031 30.3847 49.4043 30.3835C49.4161 30.3764 49.4267 30.3681 49.4373 30.3587C49.4397 30.3563 49.4432 30.3528 49.4456 30.3504C49.4468 30.3492 49.448 30.3469 49.4468 30.3445C49.4468 30.3421 49.4432 30.3421 49.442 30.3433C49.4373 30.3433 49.4338 30.3433 49.4291 30.3445C49.4232 30.3457 49.4172 30.3469 49.4113 30.3492C49.4066 30.3504 49.4019 30.3539 49.3972 30.3575C49.3783 30.3764 49.357 30.3906 49.3357 30.4071C49.3145 30.4237 49.2944 30.4402 49.2731 30.4556C49.2731 30.4556 49.2708 30.4567 49.2696 30.4579C49.2672 30.4603 49.2649 30.4615 49.2625 30.4638C49.2519 30.4733 49.246 30.4851 49.246 30.5005C49.246 30.5064 49.246 30.5123 49.246 30.517C49.246 30.5253 49.246 30.5347 49.2483 30.543C49.2495 30.556 49.2507 30.569 49.2531 30.582C49.2554 30.5985 49.2578 30.6163 49.2613 30.6328C49.2684 30.6683 49.2767 30.7025 49.2885 30.7368C49.2932 30.751 49.2979 30.7652 49.3027 30.7793C49.3027 30.7793 49.3027 30.7805 49.3027 30.7817C49.3027 30.7817 49.3027 30.7805 49.3015 30.7793C49.2708 30.7321 49.2472 30.6801 49.233 30.6245C49.2259 30.5997 49.2212 30.5737 49.2176 30.5489C49.2153 30.5324 49.2129 30.5158 49.2117 30.4993C49.2117 30.4839 49.2105 30.4686 49.2094 30.452C49.2094 30.4508 49.2094 30.4497 49.2094 30.4485C49.2094 30.4461 49.2094 30.4437 49.2094 30.4414L49.2058 30.4402Z" fill="white"/>
</g>
<defs>
<clipPath id="clip0_1_445">
<rect width="238.049" height="80" fill="white"/>
</clipPath>
</defs>
</svg>
