<?xml version="1.0" encoding="UTF-8"?>
<svg id="Layer_2" data-name="Layer 2" xmlns="http://www.w3.org/2000/svg" viewBox="0 0 62.06 62.06">
  <defs>
    <style>
      .cls-1 {
        fill: #00558a;
      }

      .cls-2 {
        fill: #fff;
      }
    </style>
  </defs>
  <g id="SDGs">
    <g id="SDG16">
      <rect class="cls-1" width="62.06" height="62.06"/>
      <path class="cls-2" d="m5.33,7.74c-.31.14-.62.26-.94.36-.41.14-.67.23-.77.28v-1.68c.41-.16.81-.36,1.2-.58.37-.18.71-.43,1-.72h1.77v11.84h-2.26V7.74Z"/>
      <path class="cls-2" d="m9.61,16.34c-.56-.83-.83-1.83-.78-2.83v-4.21c-.06-1.05.18-2.09.7-3,.58-.76,1.52-1.16,2.47-1.06.83-.08,1.66.19,2.28.74.52.63.77,1.44.72,2.25v.21h-2.15c.03-.39-.03-.78-.16-1.15-.13-.24-.4-.37-.67-.33-.21-.01-.42.07-.56.22-.16.21-.26.47-.28.73-.06.48-.09.97-.08,1.45v1.24c.15-.23.36-.4.61-.5.32-.13.66-.19,1-.18.75-.06,1.48.29,1.9.91.44.75.65,1.62.6,2.49.06,1.05-.2,2.09-.73,3-.58.77-1.52,1.18-2.48,1.08-.92.06-1.82-.33-2.39-1.06Zm3.13-1.11c.14-.51.2-1.03.18-1.56.02-.38.02-.77,0-1.15-.02-.24-.1-.47-.24-.66-.16-.2-.42-.3-.68-.26-.2,0-.39.05-.55.16-.15.1-.27.23-.37.38v1.89c0,1.12.31,1.68.94,1.68.32.03.62-.17.72-.48Z"/>
      <path class="cls-2" d="m19.84,9.92v-4.53h1.33c.23,0,.46.04.66.15.17.1.3.26.37.44.09.22.13.46.12.7.01.25-.04.49-.15.71-.09.17-.24.31-.42.39-.2.09-.42.14-.64.13h-.44v2h-.83Zm.83-2.59h.33c.12,0,.24-.02.35-.07.08-.04.14-.11.17-.2.04-.13.05-.26.05-.39.02-.13.02-.27,0-.4-.02-.09-.07-.17-.15-.22-.12-.06-.25-.09-.38-.08h-.31l-.06,1.36Z"/>
      <path class="cls-2" d="m22.65,9.92v-4.53h1.9v.58h-1.07v1.31h.84v.57h-.84v1.5h1.08v.57h-1.91Z"/>
      <path class="cls-2" d="m24.7,9.92l.9-4.53h.89l.9,4.53h-.76l-.18-1h-.79l-.19,1h-.77Zm1-1.57h.62l-.31-1.9-.31,1.9Z"/>
      <path class="cls-2" d="m28.9,9.98c-.27.01-.55-.06-.78-.2-.19-.13-.32-.31-.39-.53-.09-.25-.13-.51-.12-.78v-1.61c0-.27.04-.55.12-.81.06-.21.2-.4.39-.52.23-.14.51-.21.78-.19.25-.01.5.04.73.16.18.1.31.27.38.46.08.22.12.45.11.68v.38h-.79v-.76c0-.09-.04-.18-.11-.25-.08-.07-.19-.1-.3-.09-.11,0-.22.02-.31.09-.06.08-.1.17-.12.27-.01.12-.01.25,0,.37v2c-.02.14-.02.27,0,.41.02.09.07.18.14.24.08.05.18.08.28.08.11.01.22-.02.3-.1.06-.07.1-.16.11-.26v-.77h.79v.35c0,.24-.03.48-.1.71-.07.2-.2.37-.38.48-.22.14-.47.2-.73.19Z"/>
      <path class="cls-2" d="m30.59,9.92v-4.53h1.9v.58h-1.08v1.31h.85v.57h-.85v1.5h1.09v.57h-1.91Z"/>
      <path class="cls-2" d="m32.88,10.68l-.08-.28c.1-.03.19-.09.26-.16.07-.09.11-.2.1-.32h-.4v-.76h.74v.69c.01.2-.04.39-.15.56-.12.14-.29.24-.47.27Z"/>
      <path class="cls-2" d="m34.9,10.03v-.58h.3c.06-.01.13-.04.18-.08.05-.05.08-.11.09-.18.01-.1.01-.19,0-.29v-3.49h.82v3.52c0,.21-.02.43-.09.63-.05.16-.16.29-.31.37-.19.09-.41.13-.62.12l-.37-.02Z"/>
      <path class="cls-2" d="m38.14,9.98c-.27.02-.54-.05-.78-.18-.19-.13-.32-.31-.39-.53-.08-.27-.11-.54-.11-.82v-3.06h.81v3.21c-.01.13-.01.27,0,.4.01.11.06.21.13.3.08.08.2.12.31.11.11.01.23-.03.31-.11.07-.09.12-.19.13-.3.01-.13.01-.27,0-.4v-3.16h.8v3.06c0,.28-.03.55-.1.82-.07.22-.2.4-.39.53-.22.11-.47.15-.72.13Z"/>
      <path class="cls-2" d="m41.09,9.98c-.24.01-.47-.05-.68-.16-.19-.11-.33-.27-.42-.47-.1-.24-.15-.49-.15-.75l.71-.14c0,.16.02.31.06.46.03.12.08.22.16.31.08.08.18.12.29.11.11.01.21-.03.28-.12.06-.09.09-.19.09-.3,0-.17-.04-.35-.14-.49-.1-.14-.22-.27-.35-.38l-.57-.5c-.15-.13-.29-.29-.39-.46-.1-.2-.15-.41-.14-.63-.02-.31.1-.61.32-.83.24-.2.54-.31.85-.29.18,0,.36.03.53.1.13.06.25.16.34.27.08.12.15.26.19.4.04.15.06.3.07.46l-.7.12c0-.13-.02-.26-.05-.38-.01-.1-.06-.19-.13-.26-.07-.06-.17-.1-.27-.09-.11,0-.21.04-.28.12-.07.09-.1.19-.1.3,0,.13.03.26.1.37.07.12.17.22.27.31l.57.5c.19.15.35.34.47.55.14.23.21.49.2.76,0,.2-.05.39-.14.57-.1.17-.23.3-.4.4-.18.09-.38.14-.59.14Z"/>
      <path class="cls-2" d="m43.05,9.92v-3.92h-.72v-.61h2.25v.61h-.7v3.92h-.83Z"/>
      <path class="cls-2" d="m44.91,9.92v-4.53h.81v4.53h-.81Z"/>
      <path class="cls-2" d="m47.53,9.98c-.27.01-.55-.06-.78-.2-.19-.13-.32-.31-.39-.53-.09-.25-.13-.51-.12-.78v-1.61c0-.27.04-.55.12-.81.06-.21.2-.4.39-.52.23-.14.51-.21.78-.19.25-.01.5.04.73.16.18.1.31.27.38.46.08.22.11.45.11.68v.38h-.75v-.76c0-.09-.04-.18-.11-.25-.08-.07-.19-.1-.3-.09-.11,0-.22.02-.31.09-.06.08-.1.17-.12.27-.01.12-.01.25,0,.37v2c-.02.14-.02.27,0,.41.02.09.07.18.14.24.08.06.18.08.28.08.11.01.22-.02.3-.1.06-.07.1-.16.11-.26v-.77h.79v.35c0,.24-.03.48-.1.71-.07.2-.21.36-.38.48-.23.14-.5.21-.77.19Z"/>
      <path class="cls-2" d="m49.22,9.92v-4.53h1.89v.58h-1.11v1.31h.85v.57h-.85v1.5h1.09v.57h-1.87Z"/>
      <path class="cls-2" d="m19.61,17.31l.9-4.53h.89l.9,4.53h-.76l-.18-1.05h-.79l-.18,1.05h-.78Zm1-1.57h.62l-.31-1.9-.31,1.9Z"/>
      <path class="cls-2" d="m22.62,17.31v-4.53h.58l1.1,2.58v-2.58h.7v4.53h-.55l-1.11-2.7v2.7h-.72Z"/>
      <path class="cls-2" d="m25.55,17.31v-4.53h1.07c.29-.01.59.04.86.15.2.1.36.26.44.47.1.25.15.52.14.79v1.66c0,.28-.04.55-.14.81-.08.21-.23.39-.43.49-.26.12-.55.18-.84.16h-1.1Zm.83-.58h.25c.14.01.29-.02.41-.1.09-.07.14-.18.15-.29.01-.16.01-.31,0-.47v-1.73c.01-.15.01-.3,0-.45-.02-.1-.08-.18-.16-.24-.12-.06-.26-.09-.4-.08h-.24v3.36Z"/>
      <path class="cls-2" d="m30.94,17.37c-.24.01-.47-.05-.68-.16-.19-.11-.33-.27-.42-.47-.1-.24-.15-.49-.15-.75l.71-.14c0,.16.02.31.06.46.03.12.08.22.16.31.08.08.18.12.29.11.11,0,.22-.04.29-.12.05-.09.08-.19.08-.3,0-.17-.04-.35-.14-.49-.1-.14-.22-.27-.35-.38l-.57-.5c-.15-.13-.29-.29-.39-.46-.1-.2-.15-.41-.14-.63-.02-.31.1-.61.32-.83.24-.2.54-.31.85-.29.18,0,.36.03.53.1.13.06.25.16.34.27.08.12.15.26.19.4.04.15.06.3.07.46l-.7.13c.01-.13.01-.25,0-.38-.01-.1-.06-.2-.13-.27-.07-.06-.17-.1-.27-.09-.11,0-.21.04-.28.12-.07.09-.1.19-.1.3,0,.13.03.26.1.37.07.12.17.22.27.31l.57.5c.18.16.34.34.47.55.14.23.21.49.2.76,0,.2-.05.39-.14.57-.1.17-.23.3-.4.4-.2.1-.42.15-.64.14Z"/>
      <path class="cls-2" d="m32.9,17.31v-3.92h-.72v-.61h2.25v.61h-.7v3.92h-.83Z"/>
      <path class="cls-2" d="m34.74,17.31v-4.53h1.08c.26,0,.52.03.77.11.19.07.36.2.48.37.12.22.18.47.17.72,0,.16-.02.33-.05.49-.03.14-.08.26-.17.37-.09.11-.2.19-.33.24l.63,2.23h-.83l-.55-2.07h-.38v2.07h-.82Zm.82-2.59h.26c.13,0,.26-.02.38-.07.1-.05.17-.13.21-.23.04-.13.06-.26.06-.39.02-.18-.03-.36-.13-.51-.12-.13-.3-.19-.48-.17h-.3v1.37Z"/>
      <path class="cls-2" d="m39,17.37c-.27.01-.54-.05-.77-.18-.19-.12-.33-.3-.41-.51-.08-.26-.13-.53-.12-.8v-1.69c0-.27.03-.53.12-.78.07-.21.22-.39.41-.5.23-.13.5-.19.77-.18.27-.01.54.05.77.18.19.12.33.29.41.5.09.25.13.51.12.78v1.7c0,.26-.03.53-.12.78-.07.21-.22.4-.41.52-.23.13-.5.19-.77.18Zm0-.61c.11,0,.21-.03.3-.09.07-.07.11-.15.13-.24.01-.11.01-.23,0-.34v-2.09c.01-.11.01-.23,0-.34-.02-.09-.06-.17-.13-.24-.09-.06-.19-.09-.3-.08-.11,0-.21.02-.3.08-.07.06-.12.15-.13.24-.02.11-.02.23,0,.34v2.09c-.01.11-.01.23,0,.34.02.09.06.17.13.24.09.06.19.1.3.09Z"/>
      <path class="cls-2" d="m40.77,17.31v-4.53h.57l1.11,2.58v-2.58h.68v4.53h-.55l-1.11-2.7v2.7h-.7Z"/>
      <path class="cls-2" d="m44.84,17.37c-.25.02-.5-.05-.71-.19-.18-.14-.31-.32-.38-.54-.08-.27-.12-.54-.11-.82v-1.52c0-.28.03-.57.11-.84.06-.22.2-.41.39-.54.24-.14.51-.2.78-.19.26,0,.51.05.74.16.18.1.32.26.39.45.09.23.13.47.12.71v.24h-.79v-.26c.01-.12.01-.25,0-.37-.01-.09-.05-.18-.12-.24-.09-.06-.19-.09-.3-.08-.11-.01-.23.02-.31.1-.07.08-.12.18-.13.28v2.28c-.02.13-.02.27,0,.4.01.1.06.2.14.27.09.06.19.1.3.09.11.01.22-.03.31-.1.08-.08.13-.17.15-.28.02-.14.02-.28,0-.42v-.43h-.42v-.52h1.23v2.3h-.53l-.06-.45c-.06.14-.15.27-.27.37-.16.11-.34.16-.53.14Z"/>
      <path class="cls-2" d="m19.86,24.7v-4.53h.82v4.53h-.82Z"/>
      <path class="cls-2" d="m21.26,24.7v-4.53h.58l1.1,2.59v-2.59h.68v4.53h-.55l-1.1-2.7v2.7h-.71Z"/>
      <path class="cls-2" d="m25.34,24.76c-.24.01-.48-.05-.69-.16-.18-.11-.33-.27-.41-.46-.1-.24-.15-.5-.16-.76l.71-.14c0,.16.03.32.07.47.03.12.08.22.16.31.08.07.18.11.29.1.11.01.21-.03.28-.12.06-.09.09-.19.09-.3,0-.17-.04-.35-.14-.49-.11-.14-.23-.27-.36-.38l-.57-.5c-.15-.13-.28-.29-.38-.46-.1-.2-.15-.41-.14-.63-.03-.31.09-.61.31-.82.24-.21.55-.32.86-.3.18,0,.36.03.53.1.13.06.25.16.34.27.08.12.14.26.18.4.04.15.07.3.08.46l-.7.13c0-.13-.03-.25-.05-.38-.02-.1-.06-.19-.13-.27-.07-.06-.17-.1-.27-.09-.11,0-.21.04-.28.12-.07.08-.1.19-.1.3,0,.13.03.27.1.38.08.11.17.21.27.3l.56.5c.19.15.35.34.48.55.14.23.21.49.2.76,0,.2-.04.4-.14.57-.1.17-.23.3-.4.4-.18.09-.38.14-.59.14Z"/>
      <path class="cls-2" d="m27.3,24.7v-3.92h-.72v-.61h2.25v.61h-.71v3.92h-.82Z"/>
      <path class="cls-2" d="m29.16,24.7v-4.53h.84v4.53h-.84Z"/>
      <path class="cls-2" d="m31,24.7v-3.92h-.72v-.61h2.26v.61h-.71v3.92h-.83Z"/>
      <path class="cls-2" d="m34.09,24.76c-.27.02-.54-.05-.78-.18-.19-.13-.32-.31-.39-.53-.08-.26-.11-.54-.11-.81v-3.07h.81v3.16c-.01.13-.01.27,0,.4,0,.11.06.22.13.3.08.08.19.13.31.12.12.01.23-.03.31-.12.07-.08.12-.19.13-.3.01-.13.01-.27,0-.4v-3.16h.8v3.07c0,.27-.03.55-.1.81-.07.22-.2.4-.39.53-.22.12-.47.19-.72.18Z"/>
      <path class="cls-2" d="m36.35,24.7v-3.92h-.72v-.61h2.26v.61h-.71v3.92h-.83Z"/>
      <path class="cls-2" d="m38.21,24.7v-4.53h.79v4.53h-.79Z"/>
      <path class="cls-2" d="m40.84,24.76c-.27.01-.53-.05-.76-.18-.19-.12-.33-.3-.41-.51-.08-.25-.12-.52-.12-.79v-1.68c0-.26.03-.53.12-.78.07-.21.22-.39.41-.5.23-.13.49-.19.76-.18.27-.01.54.05.78.18.18.12.33.29.4.5.09.25.14.51.13.78v1.7c0,.27-.04.54-.13.79-.07.21-.21.39-.4.51-.24.13-.51.18-.78.16Zm0-.61c.11,0,.22-.02.31-.09.07-.07.11-.15.13-.24.01-.11.01-.23,0-.34v-2.09c.01-.11.01-.23,0-.34-.02-.09-.06-.17-.13-.24-.09-.06-.2-.09-.31-.08-.1,0-.21.02-.29.08-.07.06-.12.15-.14.24-.01.11-.01.23,0,.34v2.09c-.01.11-.01.23,0,.34.01.09.06.18.13.24.09.06.19.1.3.09Z"/>
      <path class="cls-2" d="m42.65,24.7v-4.53h.57l1.1,2.59v-2.59h.68v4.53h-.54l-1.11-2.7v2.7h-.7Z"/>
      <path class="cls-2" d="m46.72,24.76c-.25.02-.5-.04-.72-.16-.19-.1-.33-.27-.42-.46-.1-.24-.15-.5-.15-.76l.71-.14c0,.16.02.32.06.47.03.11.09.22.16.31.08.07.18.11.29.1.11,0,.22-.04.29-.12.05-.09.08-.19.08-.3,0-.17-.04-.34-.13-.49-.11-.14-.23-.27-.36-.38l-.57-.5c-.15-.13-.28-.28-.38-.46-.11-.19-.16-.41-.15-.63-.03-.31.09-.61.32-.82.23-.21.54-.32.85-.3.18,0,.36.03.53.1.13.06.25.15.34.27.09.12.15.26.19.4.04.15.06.3.07.46l-.7.13c0-.13-.02-.26-.05-.38-.01-.1-.06-.2-.13-.27-.07-.06-.17-.1-.27-.09-.11,0-.21.04-.28.12-.07.09-.1.19-.1.3,0,.13.03.26.1.38.08.11.17.21.27.3l.57.5c.18.16.34.34.47.55.14.23.21.49.2.76.01.2-.04.4-.14.57-.09.17-.23.31-.4.4-.17.09-.36.14-.55.14Z"/>
      <path class="cls-2" d="m41.25,27.54c-.34.45-.5,1.02-.43,1.58.18.54.57.98,1.07,1.25.34-.45.49-1.02.43-1.58-.18-.54-.57-.98-1.07-1.25"/>
      <path class="cls-2" d="m40.26,32.13c.66-.71.63-1.82-.08-2.49-.16-.15-.35-.27-.56-.35-.34.45-.5,1.02-.43,1.59.19.54.57.98,1.07,1.25"/>
      <path class="cls-2" d="m42.75,31.27c.37.36.86.57,1.37.58.51-.11.96-.4,1.26-.82-.36-.36-.85-.57-1.36-.58-.51.11-.96.4-1.27.82"/>
      <path class="cls-2" d="m43.8,27.82c-.38.47-.56,1.07-.51,1.67.59.05,1.18-.14,1.64-.51.37-.47.55-1.07.5-1.67-.59-.05-1.17.14-1.63.51"/>
      <path class="cls-2" d="m42.49,33.66c.52,0,1.02-.19,1.41-.54-.28-.43-.72-.73-1.22-.85-.52,0-1.02.19-1.41.54.28.43.72.73,1.22.85"/>
      <path class="cls-2" d="m43.14,45.32h-5.42c-.42-.05-.8.25-.85.68-.05.42.25.8.68.85.06,0,.12,0,.18,0h5.42c.42-.05.73-.43.68-.85-.04-.36-.32-.64-.68-.68"/>
      <path class="cls-2" d="m43.14,53.77h-5.42c-.42-.05-.8.25-.85.68-.05.42.25.8.68.85.06,0,.12,0,.18,0h5.42c.42-.05.73-.43.68-.85-.04-.36-.32-.64-.68-.68"/>
      <path class="cls-2" d="m18.76,43.45l-.38-.09.38.09"/>
      <path class="cls-2" d="m42.94,47.38h-5c-.24,0-.43.2-.43.44v1.52l-3.28.36-4.79-.11v-2.92c.64-.08,1.28-.21,1.9-.39,4.62-1.3,5.62-4.17,5.52-6.81s.76-3.73,2-4.2c.33-.12.66-.21,1-.27.03.8.18,1.59.44,2.34h.33c-.27-.76-.43-1.55-.45-2.36.36-.04.73-.04,1.09,0-.35-.22-.69-.46-1-.74.26-1.12.87-2.12,1.75-2.85.46-.44.86-.92,1.22-1.44l-.27-.17c-.35.5-.75.96-1.19,1.38-.87.74-1.49,1.73-1.79,2.84-.24-.22-.51-.49-.79-.79-1.13-1.28-2.6-.34-4.69,1.6s-4.71,2-7.28-.61c-3.38-3.47-6.33-3.45-8.36-3.25,1.39.59,1.87,1.88,2.57,5.17.74,3.45,2.59,5,5.12,5.23-1.17.19-1.47.35-3.36,1.66-1.34.73-2.92.91-4.39.5,1.54.49,3.37,2.11,5,2.67.97.33,1.98.54,3,.61v2.8l-9.09-.19v1.95l16.54-.37,3.28.37v1.52c0,.24.19.43.43.43h5c.24,0,.43-.19.44-.43v-5c.03-.24-.14-.46-.39-.49-.03,0-.06,0-.08,0Zm-15.4-.61c.36.02.72.02,1.08,0v2.83h-1.08v-2.83Z"/>
      <path class="cls-2" d="m17.19,50.97c.03.38-.26.71-.64.74,0,0,0,0,0,0h-.38c-.38-.03-.67-.36-.65-.74v-1.37c-.03-.39.26-.72.65-.75,0,0,0,0,0,0h.38c.38.03.67.36.64.74,0,0,0,0,0,.01v1.37Z"/>
    </g>
  </g>
</svg>