<?xml version="1.0" encoding="UTF-8"?>
<svg id="Layer_2" data-name="Layer 2" xmlns="http://www.w3.org/2000/svg" viewBox="0 0 62.13 62.13">
  <defs>
    <style>
      .cls-1 {
        fill: #fff;
      }

      .cls-2 {
        fill: #1a3668;
      }
    </style>
  </defs>
  <g id="SDGs">
    <g id="SDG17">
      <rect class="cls-2" width="62.13" height="62.13"/>
      <path class="cls-1" d="m5.41,7.74c-.11.06-.42.18-.94.37l-.77.28v-1.68c.41-.17.81-.37,1.2-.59.37-.19.71-.43,1-.72h1.75v11.85h-2.27l.03-9.51Z"/>
      <path class="cls-1" d="m12.24,7.13h-3.22v-1.73h5.43v1.48l-2.5,10.37h-2.2l2.49-10.12Z"/>
      <path class="cls-1" d="m19.85,5.39h1.33c.78,0,1.16.43,1.16,1.29.09.59-.32,1.14-.91,1.23-.1.01-.2.02-.3,0h-.48v2h-.82l.02-4.52Zm1.14,1.94c.17.02.33-.03.46-.14.09-.16.12-.33.11-.51.02-.14.02-.28,0-.42-.02-.09-.07-.16-.15-.21-.12-.06-.25-.08-.38-.07h-.38v1.35h.34Z"/>
      <path class="cls-1" d="m23.13,5.39h.88l.91,4.53h-.77l-.18-1h-.78l-.19,1h-.78l.91-4.53Zm.76,3l-.31-1.9-.31,1.9h.62Z"/>
      <path class="cls-1" d="m25.25,5.39h1.09c.38-.02.75.07,1.07.28.26.24.38.58.35.93.01.24-.03.48-.13.7-.08.18-.24.33-.43.39l.63,2.23h-.82l-.55-2.07h-.39v2.07h-.82v-4.53Zm1.08,2c.18.02.37-.04.5-.17.12-.15.17-.34.15-.53.02-.18-.03-.37-.13-.52-.12-.12-.3-.18-.47-.16h-.31v1.38h.26Z"/>
      <path class="cls-1" d="m28.71,6h-.76v-.61h2.32v.61h-.74v3.92h-.82v-3.92Z"/>
      <path class="cls-1" d="m30.51,5.39h.58l1.1,2.59v-2.59h.68v4.53h-.55l-1.1-2.7v2.7h-.71v-4.53Z"/>
      <path class="cls-1" d="m33.44,5.39h1.9v.59h-1.08v1.3h.85v.58h-.85v1.5h1.09v.56h-1.91v-4.53Z"/>
      <path class="cls-1" d="m35.71,5.39h1.09c.38-.02.75.07,1.07.28.26.24.38.58.35.93.01.24-.03.48-.13.7-.09.18-.24.32-.43.39l.63,2.23h-.83l-.54-2.07h-.39v2.07h-.82v-4.53Zm1.08,2c.18.02.37-.04.5-.17.12-.15.17-.34.15-.53.02-.18-.03-.37-.13-.52-.12-.12-.3-.18-.47-.16h-.31v1.38h.26Z"/>
      <path class="cls-1" d="m38.94,9.63c-.21-.29-.33-.64-.33-1l.71-.14c0,.23.05.45.14.66.07.14.21.24.37.23.11,0,.22-.04.29-.12.06-.09.1-.2.09-.31,0-.16-.04-.32-.12-.45-.11-.15-.24-.29-.38-.41l-.57-.5c-.16-.14-.29-.3-.39-.48-.1-.19-.15-.4-.14-.62-.02-.31.1-.61.32-.82.24-.21.55-.32.86-.3.32-.03.63.1.84.34.18.26.28.57.29.89l-.71.13c0-.19-.04-.38-.1-.56-.06-.13-.18-.2-.32-.19-.11,0-.22.04-.29.12-.08.08-.12.2-.11.31,0,.13.03.25.09.36.08.12.17.23.28.32l.56.5c.19.17.36.37.5.59.12.22.18.47.18.72,0,.2-.05.4-.15.58-.09.17-.23.31-.4.39-.18.1-.38.15-.59.15-.35.01-.69-.13-.92-.39Z"/>
      <path class="cls-1" d="m41.37,5.39h.82v1.89h.93v-1.89h.82v4.53h-.82v-2h-.93v2h-.82v-4.53Z"/>
      <path class="cls-1" d="m44.54,5.39h.81v4.53h-.81v-4.53Z"/>
      <path class="cls-1" d="m45.93,5.39h1.33c.77,0,1.16.43,1.16,1.29.09.59-.32,1.14-.91,1.23-.1.02-.21.02-.31,0h-.45v2h-.82v-4.52Zm1.14,1.94c.16.02.33-.03.45-.14.09-.15.14-.33.12-.51.02-.14.02-.28,0-.42-.02-.09-.08-.16-.16-.21-.11-.06-.24-.08-.37-.07h-.32v1.35h.28Z"/>
      <path class="cls-1" d="m48.97,9.63c-.21-.29-.33-.64-.33-1l.71-.14c0,.23.05.45.14.66.07.15.22.24.38.23.11,0,.21-.04.28-.12.06-.09.1-.2.09-.31,0-.16-.04-.32-.12-.45-.11-.15-.24-.29-.38-.41l-.57-.5c-.15-.14-.28-.3-.39-.48-.09-.19-.14-.41-.13-.62-.02-.31.09-.6.31-.82.24-.21.55-.32.87-.3.31-.02.62.1.83.34.18.26.29.57.29.89l-.71.13c0-.19-.03-.38-.1-.56-.05-.12-.18-.2-.31-.19-.11,0-.22.04-.3.12-.07.09-.11.2-.11.31,0,.13.03.25.09.36.08.12.17.23.28.32l.56.5c.2.17.37.37.5.59.12.22.18.47.18.72,0,.2-.05.4-.14.58-.09.17-.23.3-.4.39-.18.1-.39.16-.6.15-.35.01-.69-.13-.92-.39Z"/>
      <path class="cls-1" d="m19.85,12.79h1.87v.57h-1.07v1.32h.85v.58h-.85v2.06h-.82l.02-4.53Z"/>
      <path class="cls-1" d="m22.22,17.01c-.22-.33-.33-.72-.3-1.11v-1.7c-.03-.39.08-.77.3-1.09.26-.26.63-.4,1-.37.37-.04.74.1,1,.37.22.32.33.7.3,1.09v1.7c.03.39-.08.78-.3,1.1-.25.28-.62.43-1,.39-.37.03-.74-.11-1-.38Zm1.43-.38c.07-.16.1-.33.09-.5v-2.09c.01-.17-.02-.34-.09-.49-.06-.12-.18-.17-.37-.17s-.31.05-.37.17c-.08.15-.11.32-.1.49v2.09c-.01.17.02.34.1.5.08.13.22.2.37.18.15.02.29-.05.37-.18Z"/>
      <path class="cls-1" d="m24.98,12.79h1.09c.37-.03.75.07,1.06.28.26.23.4.58.36.93,0,.24-.04.48-.13.7-.09.18-.24.32-.43.39l.63,2.23h-.83l-.54-2.07h-.39v2.07h-.82v-4.53Zm1.08,1.94c.18.02.36-.04.5-.16.11-.15.17-.34.15-.53.02-.18-.03-.37-.13-.52-.12-.12-.3-.18-.47-.16h-.31v1.37h.26Z"/>
      <path class="cls-1" d="m29.58,13.4h-.76v-.61h2.32v.61h-.74v3.92h-.82v-3.92Z"/>
      <path class="cls-1" d="m31.35,12.79h.82v1.89h.93v-1.89h.82v4.53h-.82v-2h-.93v2h-.82v-4.53Z"/>
      <path class="cls-1" d="m34.45,12.79h1.9v.59h-1.08v1.3h.85v.57h-.85v1.51h1.09v.56h-1.91v-4.53Z"/>
      <path class="cls-1" d="m38.08,16.99c-.21-.35-.31-.75-.29-1.16v-1.52c-.03-.41.08-.82.29-1.17.25-.29.62-.44,1-.4.37-.04.74.08,1,.34.22.29.32.64.29,1v.24h-.79v-.26c.01-.13.01-.26,0-.39-.02-.09-.06-.16-.13-.22-.08-.06-.19-.09-.29-.08-.11-.01-.22.03-.31.1-.07.07-.12.16-.13.26-.01.13-.01.27,0,.4v1.9c-.01.2.02.4.1.58.15.22.45.26.67.11.04-.03.08-.07.11-.11.08-.19.12-.39.11-.6v-.42h-.49v-.52h1.23v2.29h-.54l-.05-.44c-.11.32-.43.53-.77.51-.39.07-.79-.1-1.01-.44Z"/>
      <path class="cls-1" d="m41.05,17.01c-.22-.33-.33-.72-.3-1.11v-1.7c-.03-.39.08-.77.3-1.09.26-.27.63-.4,1-.37.37-.04.74.1,1,.37.22.32.33.7.3,1.09v1.7c.03.39-.08.78-.3,1.1-.25.28-.62.42-1,.39-.37.03-.74-.11-1-.38Zm1.38-.41c.07-.16.1-.33.09-.5v-2.09c.01-.17-.02-.34-.09-.49-.06-.12-.18-.17-.37-.17-.15-.02-.3.04-.38.17-.07.15-.1.32-.09.49v2.09c0,.17.02.34.09.5.08.13.23.2.38.18.14.02.28-.03.37-.15v-.03Z"/>
      <path class="cls-1" d="m44.48,12.79h.88l.91,4.53h-.77l-.17-1h-.79l-.19,1h-.77l.9-4.53Zm.76,3l-.31-1.9-.31,1.9h.62Z"/>
      <path class="cls-1" d="m46.56,12.79h.82v4h1.1v.56h-1.92v-4.56Z"/>
      <path class="cls-1" d="m48.96,17.04c-.21-.29-.33-.64-.33-1l.71-.14c0,.23.05.45.14.66.07.15.22.24.38.23.11,0,.21-.04.28-.12.06-.09.1-.2.09-.31,0-.16-.04-.32-.12-.45-.11-.15-.24-.29-.38-.41l-.57-.5c-.16-.14-.29-.3-.39-.49-.09-.19-.14-.4-.13-.61-.02-.31.09-.61.31-.83.24-.2.55-.31.87-.29.31-.02.62.1.83.34.18.26.28.57.29.89l-.71.13c0-.19-.03-.38-.1-.56-.05-.12-.18-.2-.31-.19-.11,0-.22.04-.3.12-.08.08-.12.2-.11.31,0,.13.03.25.09.36.08.12.17.23.28.32l.56.5c.19.17.36.37.5.59.12.22.18.47.18.72,0,.2-.05.4-.14.58-.09.17-.23.3-.4.39-.5.26-1.11.18-1.52-.2v-.04Z"/>
      <path class="cls-1" d="m46.92,37.71c0-4.37-3.46-7.96-7.83-8.12-1.5-4.23-6.14-6.45-10.38-4.95-2.32.82-4.14,2.64-4.95,4.95-4.48.16-7.99,3.92-7.83,8.4.09,2.41,1.23,4.65,3.14,6.13-.21.73-.32,1.5-.32,2.26,0,4.49,3.65,8.13,8.14,8.12,1.63,0,3.23-.5,4.58-1.42,1.33.9,2.9,1.38,4.51,1.37,4.48,0,8.12-3.63,8.13-8.11,0-.75-.1-1.5-.31-2.23,1.97-1.54,3.12-3.9,3.12-6.4m-9-5.41c0,3.21-2.36,5.93-5.53,6.41-.06-.33-.09-.66-.09-1,0-3.21,2.36-5.94,5.54-6.41.05.33.08.67.08,1m-6.46,18.67c-2.57-2.49-2.64-6.59-.15-9.16.03-.03.06-.06.09-.09,2.57,2.49,2.64,6.59.15,9.16-.03.03-.06.06-.09.09m-6.44-19.67c3.18.47,5.54,3.2,5.54,6.41,0,.34-.03.67-.09,1-3.53-.51-5.98-3.79-5.46-7.32,0-.03,0-.06.01-.09m4.84,9.32c-1.1,2.19-3.35,3.58-5.8,3.58-1.04,0-2.07-.24-3-.73,1.1-2.2,3.34-3.59,5.8-3.59,1.05,0,2.08.25,3,.74m3.11-.05c3.17-1.66,7.09-.44,8.75,2.73.03.05.06.11.08.16-3.17,1.66-7.09.44-8.75-2.73-.03-.05-.06-.11-.08-.16m-1.54-14.77c2.6-.02,4.97,1.52,6,3.91-2.63.45-4.87,2.15-6,4.56-1.13-2.39-3.34-4.09-5.95-4.56,1.03-2.37,3.36-3.91,5.95-3.91m-13.86,11.91c0-3.31,2.51-6.09,5.8-6.45-.05.33-.07.67-.07,1,0,2.29.96,4.47,2.66,6-2.64.31-4.97,1.88-6.24,4.22-1.37-1.23-2.15-2.97-2.15-4.81m2.82,8.67c0-.45.05-.91.14-1.35,1.1.53,2.31.81,3.53.81,1.37,0,2.73-.34,3.93-1-.49,2.59.32,5.26,2.16,7.15-3.09,1.81-7.06.78-8.87-2.31-.59-1-.89-2.13-.89-3.29m22.08-.06c0,3.58-2.91,6.48-6.49,6.49-1.12,0-2.23-.29-3.2-.85,1.43-1.51,2.23-3.5,2.23-5.58,0-.52-.05-1.05-.15-1.56,1.2.66,2.56,1.01,3.93,1,1.23,0,2.45-.28,3.55-.82.09.43.13.86.13,1.3m-5.52-8.07c1.68-1.54,2.62-3.72,2.61-6,0-.33-.03-.67-.07-1,3.56.38,6.14,3.57,5.76,7.13-.17,1.58-.92,3.05-2.1,4.12-1.25-2.34-3.56-3.93-6.2-4.26"/>
    </g>
  </g>
</svg>