<?xml version="1.0" encoding="UTF-8"?>
<svg id="Layer_2" data-name="Layer 2" xmlns="http://www.w3.org/2000/svg" viewBox="0 0 61.93 61.93">
  <defs>
    <style>
      .cls-1 {
        fill: #fff;
      }

      .cls-2 {
        fill: #c22033;
      }
    </style>
  </defs>
  <g id="SDGs">
    <g id="SDG4">
      <rect class="cls-2" width="61.93" height="61.93"/>
      <path class="cls-1" d="m8.29,14.4h-3.56v-1.78l3.08-7.23h2.52v7.3h1.18v1.71h-1.18v2.8h-2l-.04-2.8Zm0-1.71v-5l-1.8,5h1.8Z"/>
      <path class="cls-1" d="m18.01,10.46c-.16-.16-.3-.33-.43-.51h-.09c-.37.03-.74-.11-1-.38-.22-.32-.33-.71-.3-1.1v-1.7c-.03-.38.08-.77.3-1.08.26-.27.63-.41,1-.37.37-.04.74.1,1,.37.23.31.34.69.31,1.08v1.7c.08.53-.17,1.06-.63,1.34.13.16.28.31.45.43l-.15.55c-.17-.08-.33-.2-.46-.33Zm-.15-1.29c.07-.16.11-.33.1-.5v-2.11c0-.17-.03-.34-.1-.49-.08-.12-.22-.19-.37-.17-.15-.02-.29.05-.38.17-.07.15-.1.32-.09.49v2.08c0,.17.02.35.09.51.09.12.23.19.38.17.15.04.32-.02.41-.15h-.04Z"/>
      <path class="cls-1" d="m19.88,9.78c-.19-.12-.33-.3-.39-.51-.08-.27-.12-.56-.11-.84v-3h.8v3.13c0,.2.02.41.09.6.13.21.41.27.62.14.06-.04.1-.08.14-.14.07-.19.1-.4.09-.6v-3.18h.8v3c0,.28-.03.57-.11.84-.07.21-.21.39-.39.51-.49.24-1.05.24-1.54,0v.05Z"/>
      <path class="cls-1" d="m23.21,5.38h.88l.91,4.51h-.77l-.18-1h-.78l-.19,1h-.77l.9-4.51Zm.75,3l-.3-1.9-.31,1.9h.61Z"/>
      <path class="cls-1" d="m25.42,5.38h.82v4h1.1v.56h-1.92v-4.56Z"/>
      <path class="cls-1" d="m27.76,5.38h.81v4.51h-.81v-4.51Z"/>
      <path class="cls-1" d="m29.68,5.99h-.75v-.61h2.31v.61h-.74v3.9h-.82v-3.9Z"/>
      <path class="cls-1" d="m32.21,8.17l-.92-2.79h.77l.56,1.79.52-1.79h.76l-.89,2.79v1.72h-.78l-.02-1.72Z"/>
      <path class="cls-1" d="m16.3,12.75h1.89v.58h-1.08v1.3h.9v.58h-.85v1.5h1.09v.56h-1.9l-.05-4.52Z"/>
      <path class="cls-1" d="m18.65,12.75h1.07c.29-.01.59.04.86.15.2.09.35.25.44.45.1.26.14.53.13.81v1.64c.01.28-.03.56-.13.83-.08.21-.24.38-.44.48-.26.12-.54.18-.83.16h-1.1v-4.52Zm1.08,3.94c.14.01.27-.02.39-.09.09-.06.15-.15.16-.26.01-.17.01-.34,0-.51v-1.73c.01-.15.01-.3,0-.45-.02-.1-.08-.18-.17-.24-.12-.06-.26-.08-.39-.07h-.25v3.35h.26Z"/>
      <path class="cls-1" d="m22.2,17.15c-.19-.12-.33-.3-.39-.51-.08-.27-.12-.55-.11-.83v-3.06h.8v3.15c0,.21.02.41.09.61.13.21.41.27.62.14.06-.04.1-.08.14-.14.07-.2.1-.4.09-.61v-3.15h.8v3.06c0,.28-.03.56-.11.83-.07.21-.21.39-.39.51-.23.13-.5.19-.77.18-.27.02-.54-.05-.77-.18Z"/>
      <path class="cls-1" d="m25.08,16.94c-.22-.33-.32-.72-.3-1.11v-1.62c-.03-.39.08-.79.29-1.12.25-.28.62-.43,1-.39.35-.03.69.09.94.34.22.29.32.64.28,1v.38h-.79v-.39c0-.12,0-.25,0-.37-.01-.09-.05-.17-.12-.23-.08-.06-.18-.09-.28-.08-.11-.01-.22.02-.3.09-.07.06-.12.15-.13.24-.02.13-.02.27,0,.4v2c0,.19.02.38.1.55.08.12.22.19.37.17.1,0,.2-.02.28-.09.06-.06.11-.14.12-.23,0-.13,0-.27,0-.4v-.52h.79v.36c.02.35-.08.7-.27,1-.24.26-.59.4-.95.36-.38.07-.77-.06-1.03-.34Z"/>
      <path class="cls-1" d="m28.51,12.75h.88l.91,4.52h-.77l-.18-1h-.78l-.19,1h-.77l.9-4.52Zm.76,3l-.26-1.94-.31,1.89.57.05Z"/>
      <path class="cls-1" d="m31.01,13.36h-.76v-.61h2.32v.61h-.75v3.91h-.81v-3.91Z"/>
      <path class="cls-1" d="m32.93,12.75h.82v4.52h-.82v-4.52Z"/>
      <path class="cls-1" d="m34.64,16.95c-.22-.32-.33-.71-.3-1.1v-1.69c-.03-.39.08-.77.3-1.09.26-.27.63-.4,1-.37.37-.04.74.1,1,.37.23.32.34.7.31,1.09v1.69c.02.39-.09.78-.31,1.1-.26.28-.63.42-1,.38-.37.03-.74-.11-1-.38Zm1.37-.39c.07-.16.1-.33.09-.5v-2.09c0-.17-.02-.34-.09-.5-.19-.21-.51-.22-.72-.03-.01,0-.02.02-.03.03-.07.15-.1.32-.09.49v2.08c0,.17.02.34.09.5.08.13.23.19.38.17.14.02.28-.03.37-.15Z"/>
      <path class="cls-1" d="m37.53,12.75h.57l1.1,2.58v-2.58h.68v4.52h-.55l-1.1-2.7v2.7h-.7v-4.52Z"/>
      <polygon class="cls-1" points="27.44 33.22 16.29 26.77 16.29 47.62 27.44 50.98 27.44 33.22"/>
      <polygon class="cls-1" points="28.67 33.26 28.67 50.99 39.9 47.61 39.9 26.77 28.67 33.26"/>
      <polygon class="cls-1" points="46.35 47.25 46.02 47.25 47.34 51.86 48.66 47.25 48.33 47.25 48.66 47.25 48.66 28.7 48.33 28.7 48 28.7 47.65 28.7 47 28.7 46.67 28.7 46.35 28.7 46.02 28.7 46.02 47.25 46.35 47.25"/>
      <polygon class="cls-1" points="42.3 27.67 41.1 26.72 41.1 48.18 28.7 52.19 28.13 52.19 28.02 52.19 27.44 52.19 15.1 48.74 15.1 26.72 13.9 27.67 13.9 49.58 27.39 53.31 28.02 53.31 28.13 53.31 28.76 53.31 41.2 49.36 42.3 49.04 42.3 27.67"/>
      <path class="cls-1" d="m48.66,26.25c0-.73-.59-1.32-1.32-1.32s-1.32.59-1.32,1.32v1.42h2.64v-1.42Z"/>
    </g>
  </g>
</svg>