<?xml version="1.0" encoding="UTF-8"?>
<svg id="Layer_2" data-name="Layer 2" xmlns="http://www.w3.org/2000/svg" viewBox="0 0 61.84 61.84">
  <defs>
    <style>
      .cls-1 {
        fill: #fff;
      }

      .cls-2 {
        fill: #ef412a;
      }
    </style>
  </defs>
  <g id="SDGs">
    <g id="SDG5">
      <rect class="cls-2" width="61.84" height="61.84"/>
      <path class="cls-1" d="m6.2,16.93c-.44-.28-.77-.72-.92-1.22-.18-.65-.26-1.33-.24-2h2.18c-.03.5.04,1,.19,1.48.11.3.42.49.74.46.25.02.49-.09.64-.29.15-.24.24-.51.26-.79,0-.34.05-.82.05-1.45.02-.54-.04-1.09-.2-1.61-.11-.35-.45-.57-.81-.53-.52,0-.86.35-1,1.06h-1.94l.16-6.7h5.43v1.97h-3.58l-.13,2.61c.19-.2.43-.35.7-.42.34-.11.7-.17,1.06-.17.75-.03,1.45.35,1.82,1,.45.84.67,1.79.61,2.74.02.78-.07,1.56-.25,2.32-.14.58-.46,1.09-.93,1.45-.59.4-1.29.58-2,.53-.64.02-1.28-.13-1.84-.44Z"/>
      <path class="cls-1" d="m16.49,9.51c-.21-.35-.3-.75-.28-1.15v-1.49c-.03-.41.07-.81.29-1.16.25-.29.62-.44,1-.4.37-.05.74.08,1,.34.22.29.32.64.29,1v.23h-.79v-.27c.01-.13.01-.26,0-.39-.01-.09-.06-.17-.13-.23-.09-.05-.19-.08-.29-.07-.11-.01-.22.03-.3.1-.07.07-.12.15-.13.25-.01.14-.01.27,0,.41v1.89c0,.2.03.39.11.57.08.13.23.21.38.19.16.01.31-.06.39-.2.08-.19.12-.39.11-.6v-.43h-.48v-.51h1.15v2.28h-.53l-.06-.44c-.11.32-.42.52-.76.5-.38.06-.75-.11-.97-.42Z"/>
      <path class="cls-1" d="m19.36,5.37h1.89v.57h-1.07v1.3h.85v.57h-.85v1.5h1.08v.56h-1.9v-4.5Z"/>
      <path class="cls-1" d="m21.72,5.37h.57l1.1,2.57v-2.57h.67v4.5h-.54l-1.1-2.69v2.69h-.7v-4.5Z"/>
      <path class="cls-1" d="m24.72,5.37h1.09c.29-.02.59.03.86.14.2.09.36.25.44.45.1.26.15.53.14.81v1.64c0,.28-.04.57-.14.83-.08.21-.23.37-.43.47-.26.12-.54.17-.83.16h-1.1l-.03-4.5Zm1.09,3.93c.14.01.27-.02.39-.09.08-.07.14-.17.16-.27.01-.17.01-.33,0-.5v-1.73c.02-.15.02-.3,0-.45-.02-.1-.07-.19-.16-.24-.13-.06-.26-.08-.4-.07h-.24v3.35h.25Z"/>
      <path class="cls-1" d="m27.81,5.37h1.9v.57h-1.1v1.3h.85v.57h-.85v1.5h1.09v.56h-1.89v-4.5Z"/>
      <path class="cls-1" d="m30.15,5.37h1.08c.38-.03.75.07,1.07.27.26.23.39.58.35.92.01.24-.03.48-.13.7-.09.18-.24.32-.43.39l.63,2.22h-.82l-.54-2.06h-.39v2.06h-.82v-4.5Zm1.08,1.93c.18.01.36-.04.5-.16.1-.16.15-.34.14-.53.02-.18-.03-.37-.13-.52-.12-.13-.3-.18-.47-.16h-.3v1.37h.26Z"/>
      <path class="cls-1" d="m16.28,12.73h1.89v.58h-1.07v1.3h.84v.57h-.84v1.5h1.08v.56h-1.9v-4.51Z"/>
      <path class="cls-1" d="m20.38,17.8c-.16-.15-.3-.32-.42-.51h-.1c-.37.04-.74-.1-1-.38-.22-.32-.33-.71-.3-1.1v-1.68c-.03-.38.08-.77.3-1.08.58-.49,1.42-.49,2,0,.22.31.33.7.3,1.08v1.69c0,.7-.21,1.14-.62,1.34.12.17.28.32.45.43l-.16.55c-.17-.09-.32-.2-.45-.34Zm-.14-1.29c.07-.16.1-.33.09-.5v-2.07c0-.17-.02-.34-.09-.49-.09-.12-.23-.19-.38-.17-.15-.02-.29.05-.37.17-.07.15-.11.32-.1.49v2.08c0,.17.03.34.1.5.08.12.22.19.37.17.15.01.3-.05.38-.18Z"/>
      <path class="cls-1" d="m22.21,17.12c-.18-.12-.32-.3-.39-.51-.08-.27-.12-.55-.11-.83v-3h.8v3.14c0,.21.02.41.09.61.13.21.41.27.62.14.06-.04.1-.08.14-.14.07-.2.1-.4.09-.61v-3.19h.8v3c0,.28-.03.56-.11.83-.07.21-.21.39-.39.51-.49.24-1.05.24-1.54,0v.05Z"/>
      <path class="cls-1" d="m25.54,12.73h.88l.9,4.51h-.76l-.18-1h-.78l-.19,1h-.77l.9-4.51Zm.75,2.94l-.3-1.89-.31,1.89h.61Z"/>
      <path class="cls-1" d="m27.74,12.73h.82v4h1.1v.56h-1.92v-4.56Z"/>
      <path class="cls-1" d="m30.08,12.73h.81v4.51h-.81v-4.51Z"/>
      <path class="cls-1" d="m32,13.34h-.75v-.61h2.31v.61h-.75v3.9h-.82v-3.9Z"/>
      <path class="cls-1" d="m34.52,15.51l-.91-2.79h.77l.56,1.79.52-1.79h.75l-.9,2.79v1.72h-.79v-1.72Z"/>
      <path class="cls-1" d="m45.11,23.36h-7.72c-.06,0-.1.04-.1.1h0v2.56c0,.06.04.1.1.1h3.08l-3.42,3.39c-4.41-3.43-10.76-2.64-14.19,1.77-3.43,4.41-2.64,10.76,1.77,14.19,1.42,1.1,3.1,1.81,4.88,2.04v3h-3c-.06,0-.1.04-.1.1h0v2.75c0,.06.04.1.1.1h3v2.91c0,.05.05.09.1.09h2.75c.05,0,.09-.04.1-.09v-2.91h3c.06,0,.1-.04.1-.1h0v-2.75c0-.06-.04-.1-.1-.1h-3v-3c5.51-.91,9.24-6.11,8.33-11.62-.25-1.5-.83-2.93-1.71-4.18l3.37-3.36v2.87c0,.06.04.1.1.1h2.56c.06,0,.1-.04.1-.1h0v-7.71s-.03-.09-.08-.1c0,0-.01,0-.02,0m-14.3,21.52c-4.11,0-7.44-3.34-7.43-7.45,0-4.11,3.34-7.44,7.45-7.43,4.11,0,7.44,3.34,7.43,7.45,0,0,0,0,0,0-.02,4.1-3.35,7.42-7.45,7.42"/>
      <path class="cls-1" d="m35.36,34.43h-9s-.09.04-.09.09v2.19s.04.09.09.09h9s.09-.03.1-.08c0,0,0,0,0-.01v-2.2s-.04-.09-.09-.09c0,0,0,0-.01,0"/>
      <path class="cls-1" d="m35.36,38.34h-9s-.09.04-.09.09v2.18s.04.09.09.09h9s.09-.03.1-.08c0,0,0,0,0-.01v-2.18s-.04-.09-.09-.09c0,0,0,0-.01,0"/>
    </g>
  </g>
</svg>